<svg width="14" height="7" viewBox="0 0 14 7" fill="none" xmlns="http://www.w3.org/2000/svg">
<path d="M7.01098 6.99763C7.24422 6.99809 7.47026 6.91676 7.64986 6.76775L13.6394 1.77034C13.8432 1.60069 13.9714 1.3569 13.9958 1.09261C14.0201 0.828322 13.9386 0.565176 13.7692 0.361065C13.5997 0.156954 13.3562 0.0285965 13.0923 0.00422933C12.8283 -0.0201378 12.5655 0.0614814 12.3616 0.231132L7.01098 4.70882L1.66034 0.39105C1.55823 0.308027 1.44074 0.246028 1.31463 0.208615C1.18851 0.171203 1.05625 0.159115 0.925449 0.173047C0.794649 0.186979 0.667889 0.226656 0.552454 0.289797C0.437019 0.352938 0.335186 0.438299 0.252808 0.540973C0.161388 0.643741 0.0921499 0.764305 0.049432 0.895111C0.00671407 1.02592 -0.00856199 1.16415 0.00455811 1.30114C0.0176782 1.43813 0.0589119 1.57093 0.125678 1.69123C0.192445 1.81152 0.283305 1.91672 0.392564 2.00022L6.38208 6.82772C6.56684 6.95317 6.78827 7.013 7.01098 6.99763V6.99763Z" fill="#563916"/>
</svg>
