<svg width="6" height="10" viewBox="0 0 6 10" fill="none" xmlns="http://www.w3.org/2000/svg">
<path d="M0.136993 2.68458H1.49316C1.49316 1.88218 1.96371 1.26266 2.89042 1.26266C3.59419 1.26266 4.23939 1.61506 4.23939 2.46266C4.23939 3.11506 3.85514 3.41506 3.24795 3.87122C2.55651 4.37362 2.00891 4.96026 2.04795 5.91266L2.05514 6.38834H3.39795V6.02362C3.39795 5.28595 3.67843 5.07122 4.43562 4.49691C5.06131 4.02122 5.71371 3.49314 5.71371 2.38458C5.71371 0.83218 4.40275 0.08218 2.96747 0.08218C1.60514 0.08218 0.105144 0.746906 0.138021 2.68458H0.136993ZM1.74179 8.3517C1.74179 8.8993 2.17843 9.3041 2.77946 9.3041C3.40514 9.3041 3.83562 8.8993 3.83562 8.3517C3.83562 7.78458 3.40412 7.38595 2.77843 7.38595C2.17843 7.38595 1.74179 7.78458 1.74179 8.3517V8.3517Z" fill="white"/>
</svg>
