<svg width="0" height="0" class="hidden">
  <symbol viewBox="0 0 10 18"  xmlns="http://www.w3.org/2000/svg" id="Facebook">
    <path fill-rule="evenodd" clip-rule="evenodd" d="M9.623.004L7.225 0C4.53 0 2.789 1.739 2.789 4.43v2.042H.377A.372.372 0 0 0 0 6.84V9.8c0 .203.169.367.377.367H2.79v7.467c0 .203.169.367.377.367h3.146a.372.372 0 0 0 .378-.367v-7.467h2.82a.372.372 0 0 0 .376-.367l.002-2.96c0-.097-.04-.19-.11-.26a.383.383 0 0 0-.268-.107H6.69V4.741c0-.832.203-1.255 1.317-1.255h1.616A.372.372 0 0 0 10 3.119V.37a.372.372 0 0 0-.377-.367z"></path>
  </symbol>
  <symbol viewBox="0 0 18 18"  xmlns="http://www.w3.org/2000/svg" id="Instagram">
    <path fill-rule="evenodd" clip-rule="evenodd" d="M9 .5c2.309 0 2.598.01 3.505.051.904.041 1.522.185 2.063.395a4.166 4.166 0 0 1 1.505.98c.473.473.764.947.98 1.506.21.54.355 1.159.396 2.063.041.907.051 1.197.051 3.505 0 2.309-.01 2.598-.051 3.505-.041.904-.185 1.522-.395 2.063a4.167 4.167 0 0 1-.98 1.505 4.167 4.167 0 0 1-1.506.98c-.54.21-1.159.355-2.063.396-.907.041-1.197.051-3.505.051s-2.598-.01-3.505-.051c-.904-.041-1.522-.185-2.063-.395a4.167 4.167 0 0 1-1.505-.98 4.166 4.166 0 0 1-.98-1.506c-.21-.54-.355-1.159-.396-2.063C.51 11.598.5 11.308.5 9s.01-2.598.051-3.505c.041-.904.185-1.522.395-2.063a4.166 4.166 0 0 1 .98-1.505 4.166 4.166 0 0 1 1.506-.98C3.972.736 4.591.591 5.495.55 6.402.51 6.692.5 9 .5zm-.003 11.33a2.833 2.833 0 1 0 0-5.665 2.833 2.833 0 0 0 0 5.665zm0-7.196a4.363 4.363 0 1 1 0 8.727 4.363 4.363 0 0 1 0-8.727zm5.859-.262a1.039 1.039 0 1 1-2.078 0 1.039 1.039 0 0 1 2.078 0z"></path>
  </symbol>
</svg>