<svg width="513" height="513" viewBox="0 0 513 513" fill="none" xmlns="http://www.w3.org/2000/svg">
<g clip-path="url(#clip0)">
<path d="M241.951 388.425L5.78989 151.609C-1.94311 143.85 -1.93011 131.288 5.82989 123.542C13.5889 115.802 26.1579 115.822 33.8969 123.582L256.002 346.302L478.106 123.574C485.846 115.815 498.407 115.795 506.167 123.534C510.057 127.417 512.002 132.504 512.002 137.591C512.002 142.665 510.07 147.732 506.207 151.608L270.052 388.425C266.334 392.162 261.274 394.259 256.002 394.259C250.73 394.259 245.676 392.156 241.951 388.425Z" fill="black"/>
</g>
<defs>
<clipPath id="clip0">
<rect width="512.002" height="512.002" fill="white" transform="matrix(0 1 1 0 0 0)"/>
</clipPath>
</defs>
</svg>
