<svg width="513" height="513" viewBox="0 0 513 513" fill="none" xmlns="http://www.w3.org/2000/svg">
<g clip-path="url(#clip0)">
<path d="M270.051 123.577L506.212 360.393C513.945 368.152 513.932 380.714 506.172 388.46C498.413 396.2 485.844 396.18 478.105 388.42L256 165.7L33.8961 388.428C26.1561 396.187 13.5951 396.207 5.83508 388.468C1.94508 384.585 6.10352e-05 379.498 6.10352e-05 374.411C6.10352e-05 369.337 1.93207 364.27 5.79507 360.394L241.95 123.577C245.668 119.84 250.728 117.743 256 117.743C261.272 117.743 266.326 119.846 270.051 123.577Z" fill="black"/>
</g>
<defs>
<clipPath id="clip0">
<rect width="512.002" height="512.002" fill="white" transform="matrix(0 -1 -1 0 512.002 512.002)"/>
</clipPath>
</defs>
</svg>
