<?xml version="1.0" standalone="no"?>
<!DOCTYPE svg PUBLIC "-//W3C//DTD SVG 20010904//EN"
 "http://www.w3.org/TR/2001/REC-SVG-20010904/DTD/svg10.dtd">
<svg version="1.0" xmlns="http://www.w3.org/2000/svg"
 width="700.000000pt" height="700.000000pt" viewBox="0 0 700.000000 700.000000"
 preserveAspectRatio="xMidYMid meet">
<metadata>
Created by potrace 1.11, written by Peter Selinger 2001-2013
</metadata>
<g transform="translate(0.000000,700.000000) scale(0.100000,-0.100000)"
fill="#000000" stroke="none">
<path d="M4855 6776 c-246 -188 -487 -554 -765 -1161 -50 -110 -120 -251 -156
-312 -178 -307 -442 -584 -724 -760 -71 -44 -231 -122 -295 -144 -54 -19 -98
-67 -180 -197 l-69 -111 -61 -6 c-33 -4 -78 -9 -100 -11 -465 -49 -763 -136
-852 -250 -15 -19 -59 -54 -98 -76 -287 -168 -476 -359 -563 -570 -43 -105
-59 -189 -57 -298 4 -152 28 -248 101 -395 108 -217 322 -448 724 -785 74 -62
138 -121 142 -131 4 -10 9 -56 11 -102 4 -82 4 -84 -19 -81 -12 1 -25 -4 -28
-12 -3 -8 0 -14 6 -14 6 0 8 -3 4 -7 -4 -5 -14 0 -21 10 -7 10 -16 14 -19 8
-4 -5 -2 -12 4 -16 13 -8 13 -25 0 -25 -5 0 -9 6 -7 13 1 6 -5 10 -13 8 -8 -2
-23 -4 -33 -5 -9 0 -16 -5 -15 -11 2 -5 7 -9 11 -7 5 1 6 -2 2 -7 -6 -10 -35
-4 -35 7 0 3 7 14 17 24 14 16 14 18 0 18 -9 0 -19 -10 -22 -21 -4 -12 -10
-18 -14 -12 -3 5 -14 9 -23 10 -32 1 -38 3 -38 11 0 12 54 10 63 -2 5 -7 7 -4
3 7 -4 12 -2 16 6 11 7 -4 8 -3 4 4 -5 8 -2 10 8 6 9 -3 16 -1 16 6 0 6 -4 8
-10 5 -5 -3 -10 2 -11 12 0 14 -2 14 -9 -4 -5 -13 -14 -23 -20 -23 -6 0 -9 4
-5 9 8 15 -14 24 -29 12 -7 -6 -16 -8 -20 -4 -4 4 -4 -1 0 -12 7 -17 5 -18 -7
-8 -12 10 -20 9 -36 -2 -11 -8 -23 -11 -27 -8 -3 3 -6 1 -6 -6 0 -7 -5 -9 -10
-6 -8 5 -7 11 1 21 8 10 8 14 0 14 -6 0 -11 -4 -11 -10 0 -5 -7 -10 -15 -10
-9 0 -18 -6 -21 -13 -2 -7 -14 -13 -24 -14 -11 -1 -18 2 -15 7 10 16 -28 -1
-53 -24 -20 -18 -23 -18 -20 -4 3 16 1 18 -24 18 -9 0 -9 -3 1 -9 18 -11 7
-40 -13 -37 -19 3 -34 16 -18 16 7 0 12 6 12 13 -1 6 -10 1 -22 -13 -11 -14
-27 -24 -34 -22 -17 3 -19 -14 -2 -24 7 -5 8 -3 3 5 -6 10 -3 11 12 2 11 -6
22 -9 24 -8 2 1 -4 -5 -14 -13 -14 -12 -15 -18 -5 -28 8 -8 8 -12 1 -12 -6 0
-14 7 -17 16 -6 16 -26 11 -26 -7 0 -6 6 -7 13 -3 9 6 9 5 0 -8 -7 -8 -10 -17
-7 -21 3 -3 -5 -3 -18 1 -17 5 -19 7 -6 10 17 3 14 32 -4 32 -5 0 -7 -4 -4 -9
3 -5 -1 -12 -10 -15 -13 -5 -14 -9 -4 -21 9 -10 9 -15 1 -15 -6 0 -11 6 -11
13 0 8 -4 7 -10 -3 -5 -8 -10 -10 -10 -4 0 6 7 17 15 24 8 7 15 17 15 23 0 6
-11 0 -25 -13 -17 -16 -23 -30 -19 -44 4 -15 3 -17 -4 -7 -8 10 -10 11 -14 1
-3 -10 -8 -11 -24 -1 -18 11 -18 11 0 9 10 -2 21 2 23 7 4 12 -52 14 -63 2 -4
-4 -1 -7 6 -7 11 0 10 -4 -2 -17 -16 -15 -16 -17 -1 -28 13 -10 13 -14 3 -20
-9 -5 -11 -4 -6 3 4 7 1 12 -8 12 -8 0 -14 8 -13 19 0 11 5 17 9 15 4 -3 8 0
8 6 0 6 -7 10 -17 8 -23 -4 -27 -48 -6 -65 16 -13 16 -13 -5 -3 -22 11 -23 10
-17 -12 5 -17 4 -19 -4 -8 -6 8 -8 25 -5 36 6 23 -10 41 -21 24 -3 -5 -1 -10
6 -10 8 0 8 -4 -1 -15 -8 -10 -20 -13 -34 -9 -18 6 -19 5 -8 -9 8 -9 10 -22 6
-28 -5 -8 -2 -10 8 -7 8 4 15 0 15 -7 0 -10 -5 -11 -19 -4 -10 6 -16 14 -12
20 7 11 -13 39 -28 39 -6 0 -5 -7 3 -16 10 -13 10 -17 -1 -24 -12 -7 -11 -10
3 -16 9 -3 17 -11 17 -17 0 -6 -11 0 -25 13 -13 12 -22 27 -19 31 3 5 0 9 -5
9 -14 0 -14 -27 -1 -35 13 -8 13 -25 0 -25 -6 0 -9 6 -8 13 2 6 -4 12 -12 11
-9 -1 -17 8 -18 20 -1 17 1 18 8 6 6 -9 10 -10 10 -3 0 7 -8 17 -17 22 -10 6
-13 11 -6 11 6 0 15 -5 18 -10 4 -7 19 -3 39 10 18 11 37 16 41 12 5 -4 5 -1
1 6 -4 7 -4 12 1 11 4 -1 15 -1 23 0 12 1 13 3 1 10 -9 6 -10 11 -2 15 6 4 11
1 11 -6 0 -9 3 -9 10 2 7 11 10 11 10 2 0 -7 5 -10 11 -6 8 4 7 9 -2 16 -11 7
-10 8 4 4 10 -3 15 -2 12 3 -3 5 -1 12 5 16 5 3 10 1 10 -4 0 -6 5 -11 11 -11
5 0 7 5 3 12 -4 7 -3 8 4 4 7 -4 9 1 7 15 -3 16 -1 19 13 14 9 -4 25 -8 35
-10 9 -2 23 -7 30 -10 6 -4 3 1 -8 10 -19 16 -19 16 8 11 15 -3 25 -1 22 4 -3
5 4 7 15 5 11 -2 18 0 15 5 -3 6 2 7 12 4 15 -5 16 -4 3 6 -13 10 -13 11 0 7
10 -3 16 2 17 14 1 10 -3 19 -8 19 -6 0 -8 4 -5 8 3 5 -1 9 -9 9 -18 0 -18 -2
-1 -20 12 -11 11 -15 -6 -26 -18 -11 -19 -10 -13 11 5 18 4 20 -4 8 -10 -13
-11 -13 -11 0 0 9 -3 11 -8 5 -12 -17 -60 -45 -65 -37 -2 4 -2 1 -1 -5 4 -17
-7 -16 -36 4 -14 9 -20 10 -13 4 8 -10 6 -19 -10 -37 -11 -13 -25 -24 -30 -24
-6 0 -3 8 6 18 19 21 22 42 6 42 -5 0 -7 5 -3 12 4 7 3 8 -5 4 -9 -6 -9 -11 0
-22 15 -18 -4 -44 -29 -38 -11 3 -24 -6 -37 -25 -20 -31 -39 -33 -28 -3 5 14
3 15 -7 5 -11 -10 -10 -16 5 -33 19 -21 8 -29 -13 -8 -7 7 -12 8 -12 3 0 -5
-6 0 -14 11 -11 14 -17 16 -26 7 -16 -14 -4 -34 15 -26 11 4 13 1 9 -11 -6
-15 -9 -15 -28 -3 -11 7 -29 16 -39 20 -14 5 -16 3 -8 -12 7 -13 6 -24 -3 -36
-13 -18 -14 -18 -24 1 -6 10 -12 15 -12 11 0 -5 9 -20 20 -34 18 -23 26 -19
21 11 -1 5 5 6 14 2 11 -4 14 -2 8 7 -12 19 -12 38 -1 35 21 -7 19 -50 -2 -65
-11 -8 -18 -19 -14 -24 3 -6 12 -3 20 8 13 17 14 17 8 -2 -3 -11 -2 -16 3 -10
11 14 33 17 33 5 0 -5 -7 -10 -16 -10 -18 0 -14 -22 6 -28 7 -3 10 0 6 7 -4 6
-2 11 3 11 6 0 11 -4 11 -9 0 -17 -20 -23 -35 -11 -12 10 -16 9 -21 -4 -5 -13
-9 -14 -20 -5 -12 10 -13 9 -8 -4 3 -9 15 -19 26 -23 18 -5 18 -6 2 -19 -10
-7 -23 -11 -29 -8 -7 2 -12 -3 -12 -12 0 -9 6 -14 14 -11 9 4 8 -2 -4 -19 -10
-13 -22 -25 -26 -25 -4 0 -2 -6 5 -14 7 -8 21 -12 31 -10 10 1 15 -1 12 -6 -3
-4 1 -11 7 -13 8 -3 6 -6 -4 -6 -10 -1 -18 3 -18 8 0 6 -10 8 -22 5 -13 -3
-28 -6 -35 -8 -17 -3 -29 -16 -15 -16 7 0 12 -5 12 -11 0 -5 -5 -7 -11 -3 -7
4 -10 1 -7 -6 2 -7 12 -14 21 -16 13 -2 16 3 12 16 -9 29 14 34 48 10 23 -18
29 -19 24 -7 -4 10 -2 17 3 17 15 0 12 -26 -6 -40 -8 -8 -14 -9 -13 -4 4 21
-2 28 -12 14 -9 -12 -10 -12 -5 3 4 12 2 17 -6 14 -7 -2 -11 -11 -9 -18 2 -8
4 -20 4 -27 0 -7 7 -10 15 -7 9 3 21 -4 30 -16 9 -13 21 -19 33 -16 11 3 17 1
13 -4 -9 -15 -26 -10 -51 13 -18 16 -23 18 -23 6 0 -8 11 -21 25 -28 13 -7 22
-17 19 -21 -2 -4 0 -10 6 -14 5 -3 10 2 10 12 0 15 2 16 10 3 5 -8 7 -23 4
-34 -4 -12 -2 -16 5 -11 7 4 23 -1 37 -10 25 -16 26 -16 19 7 -5 20 -4 20 5 5
6 -9 9 -21 5 -26 -3 -5 -1 -12 5 -16 10 -6 14 7 10 34 -1 7 9 2 23 -12 17 -20
27 -23 35 -15 8 8 16 7 28 -3 9 -8 27 -13 38 -12 20 3 20 2 2 -5 -14 -6 -16
-11 -8 -16 7 -4 18 -4 24 -1 7 4 4 -1 -6 -9 -11 -9 -24 -16 -29 -16 -4 0 -6
-4 -2 -9 3 -5 1 -12 -4 -16 -6 -3 -8 3 -6 15 2 11 0 20 -6 20 -5 0 -9 -5 -9
-12 0 -6 -3 -8 -6 -5 -4 3 -16 2 -27 -4 -15 -9 -18 -8 -12 2 6 8 4 10 -5 4 -9
-6 -11 -4 -5 4 6 10 3 11 -15 1 -20 -11 -21 -13 -5 -30 10 -11 14 -24 10 -32
-6 -10 -5 -10 5 -1 11 10 10 16 -5 33 -10 11 -13 20 -7 20 6 0 14 -5 17 -10 4
-6 10 -8 14 -6 4 3 7 -6 6 -20 0 -14 -7 -29 -15 -34 -8 -5 -10 -10 -4 -10 14
0 35 24 33 36 -3 21 2 47 8 40 10 -10 11 -49 2 -68 -6 -10 -5 -19 1 -23 6 -4
10 -3 9 2 -4 23 2 32 19 26 16 -7 16 -6 -1 11 -22 23 -22 31 4 33 18 2 19 0 7
-14 -9 -12 -10 -15 0 -9 6 4 12 2 12 -3 0 -6 7 -11 16 -11 9 0 12 -5 8 -12 -6
-10 -4 -10 7 -1 18 18 34 16 19 -2 -14 -17 -14 -17 17 -20 12 -1 20 2 17 6 -3
5 0 9 5 9 15 0 14 -27 -1 -34 -7 -3 1 -3 19 0 23 3 35 -1 43 -13 9 -15 10 -14
4 7 -6 22 -5 23 10 11 9 -7 16 -21 16 -29 0 -13 3 -12 14 4 8 10 18 15 22 11
5 -4 3 -12 -5 -16 -10 -6 -9 -10 5 -15 10 -4 15 -4 12 0 -9 8 9 44 22 44 12 0
9 -22 -5 -32 -5 -4 -6 -10 -2 -15 9 -8 28 17 21 28 -2 4 3 9 11 13 8 3 17 0
21 -6 4 -6 3 -8 -3 -5 -5 3 -10 0 -10 -8 0 -8 4 -15 9 -15 8 0 12 15 9 37 -2
12 16 26 37 29 6 1 10 -2 6 -7 -3 -5 -10 -7 -15 -4 -5 4 -9 2 -9 -3 0 -17 13
-22 28 -9 13 9 14 9 8 0 -4 -9 -1 -13 9 -13 11 0 15 5 12 15 -4 8 -1 17 5 21
6 4 8 3 4 -4 -3 -5 -2 -12 3 -14 6 -1 1 -14 -10 -28 -12 -14 -17 -19 -13 -11
4 9 3 12 -4 7 -5 -3 -13 0 -15 6 -4 9 -6 9 -6 -1 -1 -11 -5 -10 -17 5 -8 10
-13 13 -9 7 3 -7 1 -23 -6 -35 l-12 -22 27 18 c27 17 28 17 21 -3 -4 -13 -2
-21 5 -21 6 0 9 4 6 9 -3 5 1 12 10 15 25 9 26 8 9 -18 -12 -18 -13 -24 -3
-22 24 3 39 18 34 32 -3 7 -1 16 3 19 12 7 22 -22 14 -42 -4 -10 -2 -14 4 -10
15 10 24 49 10 41 -7 -3 -5 0 4 8 9 7 19 20 22 28 4 8 5 2 1 -14 -4 -24 -3
-27 8 -19 10 8 18 8 32 -3 10 -7 23 -11 27 -8 5 3 9 0 9 -6 0 -13 -32 -9 -42
5 -5 6 -8 4 -8 -5 0 -13 -2 -13 -11 0 -9 13 -10 12 -5 -2 3 -10 2 -18 -2 -18
-5 0 -17 -7 -28 -16 -11 -9 -3 -7 19 5 40 22 51 13 15 -12 -22 -15 -23 -15 -2
-10 12 2 26 14 30 24 9 18 11 19 29 4 17 -15 18 -16 2 -11 -10 3 -16 2 -12 -3
3 -5 2 -11 -2 -14 -5 -2 -1 -2 7 1 30 9 83 4 91 -9 6 -10 8 -8 7 8 -2 14 -7
19 -18 15 -12 -4 -13 -3 -2 9 11 12 15 11 28 -5 12 -17 12 -23 -1 -42 -9 -15
-11 -25 -5 -29 6 -4 9 -1 8 7 -2 7 2 12 9 11 8 -2 10 4 6 14 -4 10 -2 14 5 9
6 -3 13 -2 17 4 4 6 11 8 16 4 6 -3 3 -12 -8 -20 -16 -13 -15 -13 10 -3 15 7
27 17 27 22 0 6 3 7 8 3 7 -7 8 -12 11 -38 0 -7 7 -4 15 7 8 12 19 16 31 12
14 -6 15 -10 5 -22 -9 -10 -9 -15 -1 -15 6 0 11 4 11 10 0 5 8 7 18 3 14 -5
14 -3 -2 9 -19 15 -19 16 7 16 16 0 24 -5 20 -11 -3 -6 -1 -7 6 -3 6 4 14 0
17 -8 3 -9 10 -13 15 -10 5 3 9 0 9 -7 0 -7 3 -9 7 -5 5 4 0 14 -10 21 -10 7
-14 16 -8 19 5 3 21 -8 35 -26 15 -18 24 -25 20 -15 -5 13 -2 16 10 11 12 -5
13 -11 5 -27 -9 -20 -9 -20 4 -5 8 10 18 14 23 10 4 -4 3 0 -4 9 -14 19 -6 29
21 29 17 0 18 2 6 18 -11 14 -11 15 1 5 15 -13 55 1 45 17 -3 5 -1 11 4 14 4
3 8 -2 8 -12 0 -35 3 -43 15 -36 7 5 8 3 3 -6 -6 -10 -11 -10 -20 4 -11 15
-13 15 -19 1 -3 -8 -11 -14 -18 -13 -15 4 -19 -40 -5 -49 6 -3 7 -1 3 5 -3 5
0 13 6 15 10 4 10 6 1 6 -24 2 -13 16 12 17 20 2 23 -1 16 -15 -8 -13 -5 -17
12 -18 17 -2 18 0 7 7 -8 5 -11 12 -7 16 3 4 14 1 24 -7 11 -9 14 -10 9 -1 -5
8 1 12 18 12 14 0 26 -5 26 -11 0 -5 -4 -8 -9 -5 -5 3 -14 -1 -21 -9 -9 -10
-9 -15 -1 -15 6 0 11 5 11 11 0 5 4 8 9 4 6 -3 14 3 20 12 6 11 11 13 11 5 0
-8 5 -10 12 -6 8 5 9 2 5 -10 -4 -10 -3 -15 3 -11 6 3 13 -1 16 -9 3 -9 11
-16 16 -16 6 0 5 7 -2 15 -7 9 -10 18 -6 22 3 4 13 -2 21 -13 15 -19 15 -19 9
1 -6 16 -5 18 7 8 18 -17 26 -16 33 3 5 14 4 15 -9 4 -12 -10 -16 -9 -21 5 -5
13 -9 14 -15 3 -7 -11 -9 -11 -9 1 0 11 -3 11 -17 0 -9 -8 -14 -9 -10 -3 3 6
0 11 -8 12 -8 1 -22 3 -30 4 -9 1 -14 7 -11 15 6 15 -5 17 -22 3 -7 -5 -5 -2
4 8 14 16 16 16 28 0 7 -10 16 -15 19 -11 4 3 7 1 7 -6 0 -7 5 -9 10 -6 6 4 7
12 3 18 -3 7 4 3 17 -8 l23 -20 -7 25 c-6 24 -6 24 9 -2 9 -16 20 -28 26 -28
6 0 7 6 3 13 -4 6 -4 9 1 5 4 -4 14 0 22 10 13 16 13 15 5 -3 -4 -11 -8 -27
-7 -35 1 -8 -4 -21 -9 -29 -10 -12 -8 -12 12 0 12 8 22 17 22 22 0 4 -4 6 -9
3 -5 -4 -7 3 -4 14 3 11 10 23 15 26 6 4 8 -2 4 -14 -5 -15 -1 -24 16 -33 13
-7 29 -12 37 -10 7 1 10 -2 6 -8 -3 -6 -1 -11 4 -11 6 0 11 6 11 13 0 8 4 7
10 -3 9 -13 10 -13 11 0 0 10 3 8 9 -5 8 -18 9 -18 9 -2 1 11 6 15 13 11 7 -4
8 -3 4 5 -4 6 -12 8 -18 5 -7 -5 -8 -2 -3 6 6 10 4 11 -6 4 -15 -9 -39 -15
-39 -9 0 5 61 35 72 35 4 0 8 -4 8 -10 0 -5 -8 -7 -17 -4 -15 5 -15 3 1 -10
22 -18 41 -21 31 -7 -3 5 0 13 5 16 7 5 5 12 -7 21 -14 12 -11 11 15 -1 32
-15 46 -32 17 -22 -8 4 -17 2 -20 -3 -4 -6 1 -10 9 -10 8 0 20 -8 26 -17 7
-12 10 -13 7 -3 -4 15 18 70 29 70 2 0 0 -9 -6 -21 -7 -11 -9 -23 -6 -27 3 -3
6 -2 6 2 0 4 9 2 20 -4 19 -10 25 -4 21 23 -1 4 9 2 21 -5 13 -7 27 -11 31
-10 5 1 6 -2 2 -8 -3 -5 -1 -10 4 -10 6 0 11 -5 11 -11 0 -8 -5 -8 -15 1 -12
10 -15 10 -15 -1 0 -11 -2 -11 -10 1 -9 13 -10 13 -10 0 0 -13 -1 -13 -10 0
-5 8 -10 10 -10 4 0 -5 7 -19 15 -30 15 -19 15 -19 8 1 -6 18 -5 19 12 5 11
-9 16 -10 11 -2 -4 6 -2 12 3 12 6 0 11 -6 11 -12 1 -7 7 -2 15 12 7 14 10 27
7 30 -4 3 -14 14 -22 25 -9 13 -3 10 15 -6 25 -22 33 -25 48 -15 14 9 20 8 27
-4 5 -8 7 -17 5 -20 -1 -3 9 -14 23 -24 14 -11 22 -14 18 -8 -3 6 -2 13 4 17
9 6 14 -8 11 -28 -1 -5 3 -6 9 -2 6 3 8 11 5 16 -3 5 1 6 9 3 9 -3 16 -2 16 3
0 5 7 10 15 10 10 0 14 -7 10 -21 -3 -12 -2 -15 1 -8 3 6 10 12 15 12 6 0 7
-6 4 -12 -4 -7 2 -4 12 7 21 22 43 30 43 15 0 -5 -4 -10 -10 -10 -5 0 -10 -4
-10 -8 0 -5 7 -9 15 -9 8 0 11 5 8 10 -4 6 0 8 10 4 9 -3 19 -2 22 3 4 6 11
10 18 10 8 0 8 -3 -1 -12 -7 -7 -12 -17 -12 -22 0 -6 8 1 17 14 17 24 19 28
22 50 0 6 6 10 12 10 8 0 7 -6 -2 -17 -12 -15 -12 -16 4 -10 10 4 21 7 23 7 3
0 2 4 -1 10 -3 6 1 7 9 4 9 -3 16 -9 16 -14 0 -4 14 -7 32 -8 20 0 27 2 19 7
-9 6 -10 11 -2 15 6 4 11 3 11 -2 0 -20 52 -5 65 18 14 25 14 25 12 3 -1 -13
-4 -23 -7 -23 -4 0 -7 -7 -7 -15 0 -8 5 -15 11 -15 6 0 4 -5 -4 -10 -13 -9
-13 -11 0 -20 8 -5 20 -10 25 -10 6 0 3 4 -5 10 -8 5 -11 12 -7 16 4 4 19 -3
34 -17 15 -13 22 -17 15 -8 -12 16 -7 29 10 29 5 0 6 -6 2 -12 -6 -10 -4 -10
8 0 14 11 19 9 33 -10 11 -14 15 -17 12 -6 -4 10 -2 20 3 23 4 3 10 0 12 -7 2
-6 10 -8 16 -4 21 13 13 27 -13 22 -13 -3 -27 0 -30 5 -7 10 7 12 68 11 22 -1
35 3 32 8 -4 6 -1 10 5 10 6 0 8 -12 5 -29 -5 -28 -3 -29 33 -27 20 0 43 5 51
10 11 7 13 5 8 -10 -7 -19 -7 -19 8 0 10 14 18 16 27 8 9 -7 18 -6 32 4 30 21
44 16 17 -6 -13 -11 -18 -20 -13 -20 6 0 14 5 18 11 4 8 9 7 16 -2 7 -11 8 -9
6 5 -2 10 3 21 11 24 8 2 11 0 8 -5 -3 -5 -2 -15 4 -23 7 -13 9 -13 9 -1 0 11
5 9 22 -5 14 -12 18 -13 10 -3 -6 9 -9 19 -5 22 11 12 21 8 26 -11 4 -16 5
-16 6 1 0 10 6 15 11 12 6 -4 10 -3 9 2 -3 20 2 27 12 13 8 -12 9 -11 4 6 -5
18 -1 22 20 22 26 0 33 -12 13 -24 -7 -5 -8 -2 -3 7 6 11 5 11 -5 2 -9 -8 -9
-16 -1 -30 10 -17 10 -17 11 1 0 11 3 16 7 13 3 -4 12 -2 20 4 16 14 17 -3 1
-19 -7 -7 -8 -12 -4 -12 4 0 16 10 25 22 12 15 20 18 25 10 4 -7 1 -12 -6 -12
-8 0 -6 -4 4 -11 12 -7 24 -6 38 1 15 8 20 8 20 -2 0 -7 7 -2 16 10 12 17 19
20 29 12 9 -8 15 -8 20 0 7 12 25 4 25 -11 0 -6 -4 -7 -10 -4 -5 3 -10 1 -10
-5 0 -17 25 -6 25 11 0 8 4 20 9 28 6 10 5 12 -2 7 -7 -4 -12 -3 -12 3 0 5 4
13 10 16 6 3 10 1 10 -5 0 -6 4 -9 8 -6 4 2 14 1 21 -3 9 -6 10 -11 2 -15 -6
-4 -11 -1 -11 6 0 8 -5 5 -11 -5 -8 -14 -8 -22 1 -30 8 -9 9 -7 4 7 -7 18 -6
18 19 1 16 -10 27 -13 27 -6 0 6 -8 11 -17 11 -14 0 -15 2 -4 13 10 10 15 8
27 -7 8 -11 14 -15 14 -9 0 12 39 11 59 -1 6 -4 11 -4 10 1 -3 20 2 34 11 28
5 -3 8 -11 6 -18 -1 -7 -1 -9 1 -4 3 4 9 4 14 1 6 -3 19 2 29 11 12 11 20 13
25 5 3 -5 11 -8 16 -5 5 4 9 0 9 -7 0 -9 3 -9 10 2 11 18 30 20 49 6 11 -8 13
-8 7 2 -4 6 -3 12 3 12 5 0 12 -8 14 -17 4 -17 5 -17 6 -1 1 21 -35 43 -44 28
-4 -6 -11 -8 -16 -4 -13 8 40 36 55 30 6 -2 2 -5 -9 -6 -18 -1 -17 -3 5 -12
14 -6 28 -10 33 -10 4 1 7 -4 7 -10 0 -9 3 -9 9 1 5 8 7 20 4 28 -4 11 -8 10
-19 -4 -13 -17 -13 -17 -14 0 0 16 10 21 39 18 8 -2 10 2 5 11 -6 10 -4 10 9
-1 15 -12 17 -10 13 18 -2 17 1 28 6 25 5 -3 8 -11 7 -17 -4 -34 8 -42 37 -24
7 4 24 1 39 -7 14 -8 22 -17 16 -20 -5 -4 -13 -2 -16 4 -5 8 -11 7 -21 -1 -8
-6 -14 -7 -14 -2 0 5 -11 9 -25 9 -17 0 -21 -3 -15 -11 6 -7 5 -17 -3 -25 -6
-8 -3 -7 9 3 12 10 28 15 38 11 10 -4 16 -1 16 7 0 10 3 10 12 1 9 -9 16 -8
30 5 20 18 25 4 6 -15 -7 -7 -8 -12 -2 -12 11 0 37 40 27 41 -28 3 -47 9 -57
19 -8 8 -6 9 8 4 13 -5 17 -4 12 4 -4 7 -3 12 2 12 6 0 12 -7 16 -15 3 -8 10
-15 16 -15 6 0 8 4 5 10 -4 6 1 7 11 3 12 -4 15 -3 10 5 -4 7 -2 12 4 12 7 0
10 -7 6 -15 -3 -8 -1 -15 5 -15 6 0 8 -4 5 -8 -2 -4 0 -14 6 -22 8 -13 9 -12
5 1 -4 12 1 17 19 17 13 0 21 -4 18 -9 -3 -5 0 -9 6 -9 7 0 9 7 6 16 -3 9 -6
17 -6 19 0 2 -11 2 -25 -1 -14 -2 -25 0 -25 6 0 6 5 8 10 5 17 -10 11 7 -7 22
-16 13 -16 13 4 4 12 -6 24 -16 26 -23 4 -8 6 -7 6 4 1 9 6 20 12 24 7 4 9 0
5 -13 -5 -15 0 -25 19 -37 14 -9 25 -12 25 -7 0 5 -6 11 -14 14 -8 3 -14 14
-13 24 1 22 34 28 55 11 11 -10 13 -8 10 7 -1 10 4 20 12 22 12 4 12 3 2 -5
-11 -7 -10 -10 3 -16 24 -9 27 -8 19 6 -4 7 -3 8 4 4 13 -8 16 5 5 20 -5 5 0
1 9 -9 10 -11 15 -24 12 -29 -4 -6 -1 -9 7 -6 19 6 18 30 -1 45 -13 10 -11 11
8 6 14 -3 21 -11 18 -19 -3 -8 4 -18 14 -24 23 -13 28 -42 5 -34 -8 4 -13 10
-10 14 3 5 0 12 -6 16 -8 4 -9 3 -5 -5 5 -7 2 -10 -6 -9 -7 2 -11 -4 -9 -12 2
-8 4 -20 4 -27 0 -7 4 -10 8 -7 5 2 5 12 2 21 -4 11 -3 14 5 9 7 -4 20 -9 31
-11 14 -3 18 1 14 16 -3 11 0 19 6 19 7 0 9 -5 5 -11 -4 -8 0 -8 15 0 17 10
22 9 27 -4 6 -14 8 -13 20 2 12 17 14 17 29 -2 16 -20 16 -20 6 2 -7 13 -7 24
-2 27 5 4 12 0 15 -6 2 -7 4 -3 2 9 -1 12 -6 26 -11 30 -4 5 -5 2 -1 -5 5 -8
2 -11 -6 -10 -7 2 -12 -2 -11 -8 1 -5 -7 -15 -18 -22 -10 -7 -19 -8 -19 -3 0
6 4 13 10 16 5 3 10 11 10 18 0 6 -7 2 -16 -9 -8 -10 -12 -13 -8 -5 7 14 -14
33 -28 25 -14 -9 -8 -24 7 -18 11 5 13 2 9 -10 -7 -17 -24 -22 -24 -7 0 6 -9
8 -20 6 -11 -2 -23 2 -26 8 -4 7 -4 9 1 5 4 -4 13 0 20 9 13 18 43 26 59 15
23 -14 42 -10 61 11 11 12 17 18 13 13 -12 -16 -9 -22 11 -23 14 -1 18 3 14
13 -3 8 0 14 7 14 6 0 8 -5 5 -10 -3 -6 -2 -10 4 -10 5 0 11 5 13 12 3 8 7 6
11 -5 3 -9 3 -16 -1 -16 -27 4 -32 -2 -21 -22 7 -15 14 -18 21 -11 6 6 18 8
27 5 13 -4 14 -3 2 5 -25 18 -25 59 0 67 11 4 26 2 31 -3 7 -7 18 -6 35 5 22
15 23 14 16 -3 -6 -17 -5 -17 10 -6 8 8 13 21 10 30 -4 15 -3 15 6 2 6 -8 15
-16 21 -16 5 -1 14 -2 18 -3 5 0 9 -8 9 -16 0 -9 -5 -14 -11 -12 -6 3 -10 11
-8 18 1 8 -7 3 -18 -10 -11 -13 -20 -19 -20 -15 0 5 -17 10 -38 10 -36 1 -39
-1 -39 -28 0 -15 4 -28 9 -28 5 0 6 5 2 12 -5 8 0 9 17 5 l24 -6 -25 19 c-22
17 -23 19 -5 16 11 -1 24 -12 30 -24 5 -12 13 -22 18 -22 4 0 3 9 -3 20 -13
25 -2 26 16 2 13 -16 14 -16 8 3 -5 17 -3 17 14 -4 15 -19 21 -21 27 -10 5 8
5 11 0 7 -4 -4 -14 0 -21 10 -21 27 -16 34 10 17 21 -14 24 -14 36 0 7 9 19
14 26 11 7 -3 15 2 18 11 6 14 9 13 28 -3 12 -11 18 -13 14 -6 -8 13 9 42 25
42 5 0 9 -7 9 -16 0 -8 -4 -12 -10 -9 -5 3 -10 2 -10 -4 0 -5 9 -9 20 -8 14 1
18 6 15 17 -6 18 22 24 41 8 19 -14 56 39 44 63 -9 15 -14 17 -34 7 -16 -7
-23 -16 -19 -27 4 -14 3 -14 -7 -1 -10 13 -11 13 -7 -1 3 -9 -1 -16 -8 -16 -7
0 -10 8 -7 19 2 10 9 18 16 18 6 0 4 5 -4 11 -12 8 -11 9 6 4 15 -4 24 0 28
10 5 14 10 14 34 -7 31 -25 31 -46 1 -74 -10 -9 -19 -22 -19 -27 0 -5 9 2 21
17 18 23 23 25 37 14 13 -11 14 -10 4 9 -16 30 -15 38 3 23 12 -10 19 -10 27
-2 19 19 32 14 17 -5 -13 -16 -12 -17 3 -4 10 7 16 17 13 21 -3 5 -1 11 5 15
5 3 10 1 10 -5 0 -6 5 -8 10 -5 6 3 10 -1 10 -9 0 -9 5 -16 10 -16 16 0 12 9
-17 36 -25 23 -25 25 -8 44 10 11 13 20 7 20 -6 0 -18 -10 -27 -22 -8 -13 -19
-23 -23 -23 -4 -1 -17 -6 -28 -12 -18 -11 -25 -9 -45 14 -13 14 -19 23 -12 20
6 -4 13 -4 16 0 2 5 2 3 1 -4 -2 -6 4 -17 12 -23 12 -10 13 -8 10 17 -2 22 1
29 16 30 10 1 18 -3 18 -8 0 -6 -4 -7 -10 -4 -5 3 -10 2 -10 -4 0 -19 19 -21
29 -4 5 10 11 16 13 13 2 -2 14 3 28 13 18 13 20 17 8 17 -21 0 -32 16 -17 26
8 4 9 3 5 -4 -4 -7 -1 -12 7 -12 8 0 20 -7 28 -16 12 -14 14 -14 26 2 7 10 13
14 13 10 0 -5 7 -3 15 4 12 10 13 16 4 26 -6 8 -8 14 -3 14 5 0 2 5 -6 11 -13
9 -13 10 0 6 8 -2 14 -8 13 -13 -2 -17 23 -32 38 -23 12 7 12 9 -1 9 -13 0
-13 1 0 10 13 8 13 10 -2 10 -22 0 -29 13 -16 30 8 13 9 12 5 -2 -7 -19 28
-31 52 -19 20 11 55 8 58 -4 5 -19 -8 -45 -19 -39 -6 4 -5 9 3 15 7 4 10 11 6
15 -4 4 -14 -1 -23 -12 -8 -10 -13 -14 -11 -9 3 6 -5 11 -17 11 -13 1 -23 -4
-23 -12 0 -8 4 -14 9 -14 5 0 6 -5 2 -11 -4 -8 -9 -7 -15 2 -8 12 -11 11 -19
-1 -7 -11 -10 -11 -10 -2 0 7 -5 10 -10 7 -6 -4 -7 -11 -4 -17 4 -7 2 -8 -4
-4 -7 4 -12 2 -12 -3 0 -6 5 -11 12 -11 17 0 3 -10 -21 -15 -12 -2 -19 0 -17
4 3 4 -1 8 -9 8 -8 0 -11 -5 -8 -10 4 -6 1 -7 -7 -2 -9 6 -11 4 -5 -5 6 -9 4
-11 -5 -5 -9 6 -11 4 -5 -5 6 -9 4 -11 -5 -5 -9 5 -11 4 -6 -4 4 -6 11 -9 16
-6 5 3 12 -4 15 -16 6 -17 9 -19 16 -8 6 10 9 11 9 2 0 -7 5 -13 11 -13 8 0 9
4 0 13 -11 14 -5 27 11 27 5 0 6 -4 3 -10 -3 -5 -2 -10 4 -10 5 0 10 8 10 18
1 35 4 52 10 53 33 8 51 5 47 -7 -3 -7 0 -16 6 -20 7 -4 8 -3 4 4 -4 7 -3 12
3 12 5 0 12 -8 14 -18 4 -15 5 -15 6 0 0 9 -6 23 -14 31 -12 13 -12 16 0 21
13 5 32 -28 27 -46 -3 -13 5 -9 19 9 10 11 10 14 2 9 -7 -4 -13 -4 -13 1 0 14
14 30 39 43 20 10 23 10 18 -2 -3 -8 -1 -21 5 -29 8 -11 9 -11 4 3 -3 10 -1
20 4 23 6 4 10 -2 11 -12 0 -13 2 -14 6 -4 3 8 -2 20 -13 28 -10 7 -14 13 -10
13 5 0 3 7 -4 15 -7 8 -9 15 -4 15 14 -1 44 -26 38 -33 -3 -3 5 -10 18 -17 19
-9 21 -9 8 2 -21 18 -25 49 -5 42 8 -3 15 -1 15 6 0 6 5 8 13 4 8 -5 8 -2 -2
9 -9 12 -10 17 -2 17 18 0 26 -31 10 -41 -10 -6 -11 -9 -1 -9 19 0 26 28 12
45 -7 8 -8 15 -2 15 5 0 15 -6 21 -14 12 -14 35 -16 47 -3 4 3 -3 5 -14 2 -12
-2 -24 0 -27 4 -8 13 43 19 57 7 10 -9 10 -8 0 5 -10 14 -10 18 3 23 9 3 15 0
15 -9 0 -8 5 -15 10 -15 7 0 7 7 0 20 -9 16 -15 18 -30 10 -11 -6 -20 -7 -20
-3 0 11 16 35 21 32 2 -2 15 4 29 14 15 11 19 17 10 17 -13 0 -13 2 0 11 12 9
12 10 -3 5 -12 -4 -17 -2 -14 6 2 7 11 12 19 10 9 -1 21 5 28 13 17 21 27 19
26 -6 -1 -13 6 -23 15 -24 9 -2 16 3 16 11 0 11 -3 11 -15 1 -13 -10 -15 -9
-10 10 8 31 -6 37 -37 17 -14 -9 -25 -13 -25 -9 0 4 -7 2 -15 -5 -13 -11 -15
-9 -11 11 3 13 5 26 5 29 1 3 5 -1 10 -9 6 -9 14 -11 26 -4 15 9 15 11 1 16
-10 4 -13 13 -9 24 4 12 -1 10 -15 -7 -12 -14 -21 -20 -22 -14 0 5 10 21 22
34 17 18 18 22 5 17 -9 -3 -17 -2 -17 3 0 12 -22 9 -31 -4 -4 -4 -9 -4 -13 2
-3 5 1 15 9 22 8 7 15 8 15 4 0 -5 13 -10 30 -10 16 -1 27 2 24 7 -3 5 0 9 5
9 6 0 11 5 11 10 0 6 -10 4 -23 -4 -14 -10 -27 -12 -36 -7 -8 5 -19 7 -26 5
-6 -3 -12 2 -12 11 0 18 2 18 28 5 13 -7 25 -8 37 -1 9 6 11 11 5 11 -7 0 -13
5 -13 11 0 5 5 7 10 4 6 -3 10 -1 10 5 0 7 -6 10 -12 7 -7 -2 -12 -12 -12 -21
2 -18 -5 -20 -26 -6 -13 9 -13 10 0 10 9 1 5 6 -10 14 -14 8 -28 13 -31 10 -3
-2 -12 8 -19 21 -7 13 -17 22 -22 19 -4 -3 -8 -1 -8 4 0 6 7 12 15 16 8 3 14
16 14 28 l-2 23 -4 -22 c-2 -13 -9 -23 -15 -23 -5 0 -8 6 -5 13 4 10 -5 14
-36 13 -23 0 -42 4 -44 11 -3 8 7 10 29 8 l33 -4 -25 14 c-15 8 -29 10 -34 4
-6 -5 -14 -9 -20 -9 -6 0 -5 5 2 12 7 7 12 17 12 23 0 5 -9 -1 -19 -14 l-18
-23 -1 32 c-1 36 -12 56 -12 21 0 -13 -4 -19 -10 -16 -6 4 -8 16 -4 27 4 14 2
18 -5 14 -6 -4 -11 -14 -11 -22 0 -8 -5 -14 -11 -14 -5 0 -7 6 -3 13 5 8 2 8
-9 -2 -10 -8 -17 -9 -17 -3 0 6 8 17 18 24 17 13 17 14 0 30 -10 10 -18 14
-18 10 0 -4 5 -13 10 -18 8 -8 6 -15 -5 -24 -14 -12 -16 -12 -15 1 1 7 2 21 1
29 -1 13 -3 13 -10 1 -5 -8 -7 -21 -4 -30 4 -10 -4 -6 -19 9 -14 14 -23 30
-20 35 3 6 -1 4 -9 -2 -17 -17 -34 -17 -21 0 7 8 8 18 1 27 -8 12 -9 11 -7 -4
2 -10 -3 -21 -11 -24 -8 -3 -11 0 -7 7 5 7 1 9 -10 4 -12 -4 -15 -3 -10 5 4 7
3 12 -1 12 -5 0 -14 -9 -20 -20 -11 -16 -10 -21 5 -29 10 -7 12 -11 4 -11 -7
0 -10 -5 -7 -10 4 -6 13 -7 23 -1 9 4 25 7 35 6 9 -2 15 0 12 4 -2 4 2 8 10 8
8 0 13 -3 10 -5 -9 -9 17 -32 28 -25 6 3 7 1 3 -5 -4 -7 -3 -12 3 -12 5 0 11
6 14 13 3 6 5 3 4 -8 -1 -12 -8 -21 -16 -21 -25 -1 -45 -8 -54 -19 -5 -6 -7
-3 -3 7 3 10 1 20 -4 23 -9 6 -14 -8 -11 -28 1 -5 -3 -6 -9 -2 -7 4 -7 12 0
25 17 31 11 37 -10 10 -11 -14 -20 -20 -20 -15 0 6 5 16 12 23 7 7 8 12 2 12
-6 0 -15 -5 -21 -11 -8 -8 -16 -8 -30 0 -16 11 -15 11 7 6 24 -6 24 -5 6 9
-23 18 -36 20 -36 6 0 -5 -5 -10 -11 -10 -8 0 -8 4 -2 13 17 20 11 46 -9 44
-21 -1 -24 -13 -5 -20 6 -2 9 -8 5 -12 -12 -13 -21 2 -23 36 -2 29 -1 30 12
14 7 -11 13 -14 13 -8 0 7 -4 15 -10 18 -5 3 -10 14 -10 25 0 22 -22 32 -41
19 -11 -8 -10 -9 5 -7 10 2 21 -2 23 -8 6 -18 -35 -9 -67 14 -21 16 -28 18
-23 7 3 -9 2 -15 -3 -14 -32 6 -43 -15 -19 -33 16 -12 30 -9 17 4 -7 7 -12 17
-12 23 0 5 5 2 11 -8 6 -9 14 -15 20 -12 5 4 9 1 9 -6 0 -8 5 -7 17 2 14 12
16 12 8 0 -6 -10 -4 -12 5 -6 9 6 11 4 5 -5 -5 -9 -4 -11 4 -6 6 4 9 12 6 17
-4 5 -1 9 4 9 11 0 16 -16 11 -35 -1 -5 -3 -16 -3 -24 0 -8 -7 -4 -17 10 -17
22 -68 40 -55 19 10 -16 -5 -12 -37 11 -30 22 -30 22 -24 2 4 -14 1 -23 -9
-27 -11 -4 -14 -2 -8 6 10 18 11 48 1 54 -4 3 -8 0 -8 -5 0 -6 -7 -11 -15 -11
-8 0 -15 5 -15 12 0 6 3 8 7 5 3 -4 12 -2 20 4 7 6 13 8 13 4 0 -4 8 -1 17 6
15 12 16 12 9 -1 -6 -11 -4 -10 9 2 22 21 13 37 -10 18 -15 -13 -21 -2 -7 16
4 5 0 3 -8 -6 -9 -8 -21 -16 -28 -17 -16 -4 -16 14 1 20 7 2 8 8 3 13 -5 5
-11 4 -13 -4 -3 -6 -9 -9 -15 -6 -6 4 -6 -1 1 -13 9 -19 7 -20 -27 -18 -22 1
-44 -4 -55 -13 -16 -14 -17 -14 -11 1 3 9 9 17 13 17 4 0 8 6 8 13 0 14 -11
17 -55 18 -17 1 -20 4 -13 13 7 9 7 16 -1 24 -8 8 -8 16 3 29 12 16 12 17 -2
6 -9 -7 -20 -9 -24 -5 -5 4 -1 -5 8 -21 16 -24 16 -28 2 -33 -8 -3 -13 -10
-10 -14 3 -5 0 -12 -6 -16 -8 -5 -8 -8 1 -14 8 -5 6 -9 -7 -12 -13 -4 -19 0
-19 13 0 10 4 16 7 13 4 -2 10 0 13 5 3 5 -1 12 -9 15 -10 4 -19 -2 -25 -17
-8 -19 -9 -20 -9 -3 -1 18 -2 18 -21 1 -11 -10 -20 -15 -20 -12 0 3 9 15 21
26 18 16 18 19 4 17 -9 -1 -21 -9 -26 -17 -7 -12 -9 -12 -10 1 -1 8 -1 18 0
23 0 4 -6 7 -15 7 -11 0 -14 -6 -10 -17 5 -16 4 -15 -9 1 -8 10 -12 23 -9 27
3 5 0 9 -7 9 -7 0 -5 8 6 20 17 18 17 20 2 14 -16 -6 -21 -17 -18 -37 1 -5 -4
-5 -10 -2 -6 4 -9 16 -6 26 3 10 2 18 -2 17 -19 -2 -22 4 -10 19 12 16 12 17
-2 6 -9 -7 -20 -9 -24 -5 -5 4 -5 2 -2 -4 4 -7 0 -15 -9 -18 -14 -5 -14 -7 0
-22 9 -8 16 -20 16 -25 0 -5 3 -8 8 -8 34 6 74 -32 50 -47 -6 -4 -8 -3 -5 3 4
6 0 16 -8 23 -8 7 -15 9 -15 4 0 -5 -5 -2 -11 6 -9 12 -10 11 -6 -8 3 -12 1
-20 -4 -16 -5 3 -9 12 -9 20 0 8 -5 12 -10 9 -6 -4 -7 -11 -4 -17 5 -7 2 -8
-5 -3 -9 5 -10 10 -2 18 18 18 13 31 -6 16 -9 -8 -14 -9 -10 -2 4 6 1 14 -5
16 -10 4 -10 6 0 6 7 1 11 5 8 10 -3 5 5 25 19 45 13 20 22 36 18 36 -3 0 -1
6 5 13 36 44 46 171 18 237 -13 32 -13 34 18 59 143 118 398 378 486 496 158
210 225 396 222 615 0 41 -6 98 -12 125 -6 28 -13 57 -15 65 -16 71 -80 198
-144 283 -88 119 -241 249 -418 355 -44 26 -97 66 -119 89 -63 66 -242 141
-429 179 -11 2 -54 11 -95 19 -41 8 -89 17 -105 19 -17 3 -64 10 -105 16 -41
6 -102 14 -135 17 -33 3 -67 7 -75 8 -8 2 -28 4 -44 4 -28 1 -28 2 33 66 204
219 388 500 502 770 28 66 90 237 139 380 184 545 256 658 525 824 39 24 72
46 75 48 6 6 -25 61 -117 211 -169 272 -329 442 -417 442 -22 0 -52 -16 -101
-54z m324 -5373 c14 -27 9 -29 -13 -7 -9 8 -13 20 -10 25 7 12 7 11 23 -18z
m-3472 -16 c0 -8 -6 -14 -14 -14 -14 0 -17 10 -6 20 10 11 20 8 20 -6z m-51
-32 c-3 -8 4 -17 15 -20 19 -6 18 -25 -2 -25 -6 0 -7 5 -3 11 4 7 1 10 -7 7
-8 -3 -13 -14 -11 -24 2 -15 1 -16 -7 -4 -6 9 -6 19 -1 25 7 8 0 12 -21 12
-29 0 -30 -2 -13 -14 10 -7 12 -13 6 -13 -7 0 -12 -5 -12 -11 0 -6 7 -8 18 -4
13 5 14 3 5 -6 -14 -14 -34 -3 -31 18 2 9 -2 18 -9 20 -12 4 -11 -26 2 -47 4
-6 1 -9 -7 -8 -7 2 -12 -2 -11 -8 1 -6 -5 -11 -13 -11 -11 0 -11 4 3 19 9 10
13 21 9 25 -4 4 -11 1 -16 -7 -6 -9 -10 -10 -10 -3 0 7 7 16 16 21 11 6 13 12
6 16 -13 8 -43 -33 -35 -48 4 -6 -1 -5 -10 3 -9 7 -17 10 -17 5 0 -5 -5 -1
-11 8 -12 21 -40 13 -32 -9 5 -12 7 -12 14 -1 5 8 9 9 9 2 0 -19 -27 -37 -35
-24 -4 7 -11 7 -18 2 -24 -18 -54 -20 -53 -3 0 9 -5 15 -11 14 -7 -2 -13 1
-13 7 0 5 10 8 23 6 12 -2 28 1 35 6 6 6 12 7 12 3 0 -4 9 4 20 18 18 22 27
26 66 23 35 -3 44 -1 40 10 -6 16 20 19 29 4 4 -7 18 -4 38 9 33 21 52 19 43
-4z m258 7 c3 -5 -1 -9 -9 -9 -8 0 -15 4 -15 9 0 4 4 8 9 8 6 0 12 -4 15 -8z
m3528 -40 c-7 -2 -10 -8 -7 -13 4 -5 -1 -6 -9 -3 -9 3 -16 9 -16 13 0 14 12
20 28 13 10 -4 12 -7 4 -10z m-3718 -8 c5 -14 4 -15 -9 -4 -17 14 -19 20 -6
20 5 0 12 -7 15 -16z m3539 1 c4 -8 2 -17 -4 -20 -5 -4 -8 -1 -7 7 2 7 -3 12
-10 10 -8 -1 -11 2 -7 8 9 14 22 12 28 -5z m62 -23 c-3 -3 -11 0 -18 7 -9 10
-8 11 6 5 10 -3 15 -9 12 -12z m85 -7 c0 -8 -2 -15 -4 -15 -2 0 -6 7 -10 15
-3 8 -1 15 4 15 6 0 10 -7 10 -15z m-3680 -5 c0 -5 -2 -10 -4 -10 -3 0 -8 5
-11 10 -3 6 -1 10 4 10 6 0 11 -4 11 -10z m3767 4 c-3 -3 -12 -4 -19 -1 -8 3
-5 6 6 6 11 1 17 -2 13 -5z m30 -16 c2 -18 0 -20 -7 -8 -12 18 -13 30 -2 30 4
0 9 -10 9 -22z m153 12 c12 -7 10 -9 -8 -7 -12 0 -22 5 -22 9 0 11 12 10 30
-2z m-4436 -26 c3 -8 2 -12 -3 -9 -5 3 -12 1 -16 -5 -4 -6 -11 -8 -16 -4 -5 3
-16 0 -24 -6 -8 -7 -15 -10 -15 -6 0 5 59 46 66 46 1 0 5 -7 8 -16z m4213 10
c-3 -3 -12 -4 -19 -1 -8 3 -5 6 6 6 11 1 17 -2 13 -5z m49 -18 c2 -14 -20 -16
-33 -2 -4 4 -1 6 7 4 9 -2 14 3 12 12 -2 8 0 11 4 7 4 -4 9 -14 10 -21z m59 4
c-3 -5 -12 -10 -18 -10 -7 0 -6 4 3 10 19 12 23 12 15 0z m-4121 -8 c3 -5 -1
-9 -9 -9 -8 0 -12 4 -9 9 3 4 7 8 9 8 2 0 6 -4 9 -8z m66 -2 c0 -5 -2 -10 -4
-10 -3 0 -8 5 -11 10 -3 6 -1 10 4 10 6 0 11 -4 11 -10z m-125 -38 c1 -12 -2
-19 -7 -16 -5 3 -7 11 -5 17 2 7 -3 18 -12 25 -14 12 -14 12 3 4 11 -5 20 -19
21 -30z m4245 24 c0 -3 -4 -8 -10 -11 -5 -3 -10 -1 -10 4 0 6 5 11 10 11 6 0
10 -2 10 -4z m66 -20 c2 -13 1 -13 -3 -1 -2 8 -9 13 -14 10 -5 -4 -9 -1 -9 5
0 18 25 5 26 -14z m194 -6 c0 -4 -7 -7 -15 -7 -8 0 -15 4 -15 9 0 4 -7 8 -16
8 -8 0 -13 4 -9 10 6 10 55 -8 55 -20z m-228 -1 c2 -2 1 -3 -1 -2 -2 2 -9 -2
-16 -7 -8 -7 -12 -5 -12 4 0 12 22 16 29 5z m-4598 -21 c-3 -5 -9 -7 -12 -4
-7 8 -33 -14 -27 -23 2 -4 -2 -8 -10 -8 -15 0 -12 9 13 38 15 18 47 15 36 -3z
m4680 3 c3 -4 -4 -17 -17 -27 l-22 -19 20 24 20 24 -30 -7 c-22 -5 -26 -4 -15
4 19 12 37 13 44 1z m-4804 -25 c0 -3 -4 -8 -10 -11 -5 -3 -10 -1 -10 4 0 6 5
11 10 11 6 0 10 -2 10 -4z m230 -16 c0 -5 -4 -10 -10 -10 -5 0 -10 5 -10 10 0
6 5 10 10 10 6 0 10 -4 10 -10z m4610 0 c8 -5 11 -10 5 -10 -5 0 -17 5 -25 10
-8 5 -10 10 -5 10 6 0 17 -5 25 -10z m238 -3 c7 -5 12 -3 12 4 0 8 3 9 13 0 8
-6 16 -8 19 -5 3 3 5 -1 5 -8 -1 -7 3 -14 8 -16 22 -7 43 -35 39 -50 -5 -15
-4 -15 8 -2 18 22 59 24 51 3 -5 -12 -3 -14 7 -8 9 5 11 4 6 -4 -7 -11 37 -63
57 -67 4 -1 13 -2 20 -3 8 -1 7 -5 -4 -11 -16 -9 -19 -55 -6 -77 4 -6 16 -9
27 -6 27 7 25 -11 -2 -31 -23 -15 -23 -16 -4 -31 11 -8 14 -15 7 -15 -8 0 -6
-9 7 -27 21 -30 14 -45 -23 -51 -15 -2 -16 0 -7 6 11 7 10 11 -4 16 -16 6 -16
8 0 25 15 17 15 19 -1 32 -16 12 -17 12 -8 -1 6 -9 2 -7 -7 3 -10 11 -18 15
-18 10 0 -5 3 -13 7 -17 12 -11 12 -36 1 -43 -6 -3 -8 -1 -4 5 3 6 2 13 -3 16
-5 3 -11 -1 -15 -9 -6 -16 9 -29 23 -20 5 3 12 1 16 -5 3 -5 1 -11 -4 -11 -21
-3 -26 -5 -46 -16 l-20 -12 20 -1 c17 0 17 -2 5 -10 -11 -7 -18 -5 -27 6 -7
10 -13 11 -18 5 -3 -6 0 -11 7 -11 10 0 10 -2 -1 -9 -9 -6 -10 -11 -2 -15 6
-4 11 -3 11 2 0 5 7 9 16 9 14 0 14 -2 -2 -14 -11 -8 -19 -18 -19 -23 0 -6 -3
-9 -6 -7 -3 1 -13 -4 -22 -12 -14 -11 -18 -11 -23 3 -5 13 -9 14 -20 5 -10 -9
-11 -15 -3 -25 8 -9 5 -15 -11 -24 -19 -10 -21 -10 -11 8 7 13 7 23 -2 32 -9
10 -9 14 1 17 6 3 12 9 12 14 0 6 -4 7 -10 4 -18 -11 -32 6 -18 23 11 13 11
15 -3 10 -9 -4 -16 -1 -16 7 0 11 5 11 19 4 15 -8 17 -13 7 -25 -7 -9 -8 -14
-1 -14 6 0 16 8 21 18 8 14 11 14 12 2 1 -8 1 -21 0 -29 -2 -10 3 -10 20 3 24
16 36 50 16 43 -7 -3 -11 -11 -9 -18 3 -11 1 -12 -10 -1 -8 8 -9 15 -3 20 6 4
10 13 9 20 -1 6 -2 17 -3 23 0 5 -5 7 -11 4 -5 -3 -7 0 -4 9 4 11 0 14 -15 11
-12 -2 -19 0 -16 5 9 15 37 4 50 -21 12 -21 14 -22 20 -6 4 9 11 17 16 17 4 0
5 -7 2 -17 -4 -10 -2 -14 5 -9 6 3 13 2 17 -4 3 -5 11 -10 17 -10 6 0 5 7 -4
18 -9 9 -13 23 -11 30 3 8 -1 10 -14 6 -16 -6 -16 -5 2 10 17 15 17 17 3 12
-24 -7 -23 6 2 22 11 7 20 17 20 23 0 8 -6 7 -17 -2 -16 -13 -17 -12 -4 3 7
10 17 16 21 13 5 -3 11 -2 14 3 7 12 -26 12 -41 0 -7 -6 -14 -5 -18 3 -6 8
-10 7 -16 -2 -5 -8 -9 -9 -9 -4 0 6 4 16 9 23 7 11 9 10 15 -3 3 -9 11 -13 17
-9 8 4 7 9 -2 16 -10 6 -6 7 11 2 21 -6 23 -5 13 8 -10 11 -10 17 -1 26 9 9 9
12 0 12 -6 0 -15 -8 -21 -17 -5 -10 -12 -15 -16 -12 -3 4 1 13 9 21 13 14 12
17 -10 28 -22 12 -23 15 -9 30 14 16 14 18 1 23 -9 4 -15 3 -14 -1 1 -4 -2
-15 -7 -25 -10 -23 -37 -3 -28 20 4 11 2 14 -5 9 -7 -4 -12 -13 -12 -21 0 -19
-17 -28 -26 -14 -4 8 -3 9 4 5 7 -4 12 -1 12 8 0 8 7 22 16 31 9 9 13 19 9 23
-4 4 -15 -3 -25 -15 -15 -19 -19 -20 -24 -7 -3 8 -2 13 3 10 5 -3 14 1 21 9
15 18 10 18 -25 5 -17 -7 -24 -7 -20 0 3 6 13 10 21 10 8 0 12 5 9 10 -4 6
-11 7 -17 4 -7 -4 -8 -2 -4 4 4 7 3 12 -2 12 -5 0 -12 -9 -15 -21 -4 -14 -10
-18 -18 -13 -9 5 -10 2 -6 -9 3 -9 2 -19 -2 -21 -5 -3 -8 5 -7 17 1 12 7 21
13 20 16 -3 24 37 8 43 -8 3 -13 14 -12 24 1 18 12 20 35 7z m-5043 -6 c3 -6
-4 -15 -15 -21 -20 -11 -21 -10 -10 9 12 23 16 25 25 12z m232 -7 c-3 -3 -12
-4 -19 -1 -8 3 -5 6 6 6 11 1 17 -2 13 -5z m4747 -18 c-10 -8 -21 -12 -23 -10
-3 2 4 11 15 18 10 8 21 12 23 10 3 -2 -4 -11 -15 -18z m24 -19 c-7 -8 -19
-14 -26 -14 -11 0 -10 4 4 14 10 7 22 13 26 13 5 0 3 -6 -4 -13z m-4913 -8
c11 -16 1 -19 -13 -3 -7 8 -8 14 -3 14 5 0 13 -5 16 -11z m4805 -19 c0 -5 -5
-10 -11 -10 -5 0 -7 5 -4 10 3 6 8 10 11 10 2 0 4 -4 4 -10z m77 -14 c0 -15
-21 -16 -34 -1 -4 4 -3 5 4 1 6 -3 14 -2 18 4 8 14 12 13 12 -4z m-4951 -28
c4 -7 3 -10 -1 -5 -5 4 -17 -5 -27 -20 -10 -16 -18 -24 -18 -20 0 8 30 57 36
57 1 0 6 -6 10 -12z m58 1 c3 -3 -5 -5 -19 -5 -13 0 -22 3 -19 7 4 8 30 6 38
-2z m4972 -12 c1 -9 -1 -19 -6 -22 -5 -3 -7 3 -6 12 2 10 -2 22 -8 26 -7 6 -6
7 3 5 8 -2 15 -12 17 -21z m-5090 -44 c-6 -6 -36 9 -36 18 0 5 9 4 20 -3 10
-7 18 -14 16 -15z m5011 20 c-4 -3 -1 -13 6 -22 11 -14 10 -14 -5 -2 -16 12
-16 31 -1 31 4 0 3 -3 0 -7z m-4956 -17 c14 8 11 -2 -4 -14 -10 -8 -13 -6 -14
11 0 12 1 16 4 9 3 -6 9 -10 14 -6z m5096 -18 c2 -18 0 -20 -7 -8 -12 18 -13
30 -2 30 4 0 9 -10 9 -22z m50 -8 c3 -10 2 -11 -4 -4 -4 6 -15 14 -23 17 -11
5 -9 6 4 4 11 -1 21 -9 23 -17z m-137 4 c0 -8 -19 -13 -24 -6 -3 5 1 9 9 9 8
0 15 -2 15 -3z m66 -19 c-1 -8 -5 -17 -8 -21 -5 -4 -4 16 1 34 3 9 9 -1 7 -13z
m-5071 -4 c-9 -8 -36 -10 -30 -2 2 4 11 8 20 8 8 0 13 -3 10 -6z m5129 1 c2
-4 0 -14 -6 -22 -8 -12 -9 -11 -4 3 5 15 2 17 -17 12 -17 -5 -19 -4 -7 4 18
13 27 14 34 3z m-5198 -27 c-3 -23 -12 -26 -13 -5 -1 11 2 20 7 20 4 0 7 -7 6
-15z m-29 -11 c-3 -3 -12 -4 -19 -1 -8 3 -5 6 6 6 11 1 17 -2 13 -5z m126 -9
c4 -8 3 -16 -1 -19 -4 -3 -9 4 -9 15 -2 23 3 25 10 4z m5037 11 c0 -2 -8 -10
-17 -17 -16 -13 -17 -12 -4 4 13 16 21 21 21 13z m32 -14 c-4 -11 -1 -13 8 -7
8 5 11 4 6 -3 -4 -6 -12 -9 -20 -6 -16 6 -17 31 0 31 7 0 10 -7 6 -15z m-5177
-20 c-3 -3 -11 0 -18 7 -9 10 -8 11 6 5 10 -3 15 -9 12 -12z m5170 -20 c11 -6
15 -12 8 -12 -6 0 -15 5 -18 10 -4 6 -10 8 -15 5 -5 -3 -11 -1 -14 4 -8 12 14
8 39 -7z m65 8 c0 -5 -4 -10 -10 -10 -5 0 -10 5 -10 10 0 6 5 10 10 10 6 0 10
-4 10 -10z m135 0 c3 -5 1 -10 -4 -10 -6 0 -11 5 -11 10 0 6 2 10 4 10 3 0 8
-4 11 -10z m-5318 -35 c0 -8 -5 -13 -11 -12 -6 1 -9 -5 -8 -13 2 -8 0 -11 -4
-7 -12 12 -14 38 -1 30 6 -4 8 0 4 10 -4 10 -2 14 7 11 7 -3 13 -11 13 -19z
m5173 -10 c0 -8 -3 -16 -7 -18 -5 -3 -8 5 -8 18 0 13 3 21 8 18 4 -2 7 -10 7
-18z m-5110 11 c0 -3 -4 -8 -10 -11 -5 -3 -10 -1 -10 4 0 6 5 11 10 11 6 0 10
-2 10 -4z m5016 -21 c-1 -8 -5 -17 -8 -21 -5 -4 -4 16 1 34 3 9 9 -1 7 -13z
m-5121 -25 c-3 -5 -11 -10 -16 -10 -6 0 -7 5 -4 10 3 6 11 10 16 10 6 0 7 -4
4 -10z m20 -10 c-3 -5 2 -10 11 -10 10 0 15 -3 11 -6 -10 -10 -39 5 -32 16 3
5 8 10 11 10 3 0 2 -4 -1 -10z m5150 -19 c-6 -5 -25 10 -25 20 0 5 6 4 14 -3
8 -7 12 -15 11 -17z m-91 10 c3 -5 -2 -15 -12 -22 -15 -12 -16 -12 -5 2 7 9
10 19 6 22 -3 4 -4 7 0 7 3 0 8 -4 11 -9z m-4997 -7 c-3 -3 -12 -4 -19 -1 -8
3 -5 6 6 6 11 1 17 -2 13 -5z m123 -10 c0 -8 -19 -13 -24 -6 -3 5 1 9 9 9 8 0
15 -2 15 -3z m4950 -4 c8 -5 11 -10 5 -10 -5 0 -17 5 -25 10 -8 5 -10 10 -5
10 6 0 17 -5 25 -10z m170 -29 c13 -12 12 -13 -7 -8 -12 2 -24 0 -26 -7 -3 -6
-5 4 -4 21 0 25 3 30 11 20 6 -6 18 -18 26 -26z m5 29 c3 -5 -1 -10 -9 -10 -9
0 -16 5 -16 10 0 6 4 10 9 10 6 0 13 -4 16 -10z m-5242 -17 c3 -5 -5 -8 -18
-8 -13 0 -21 3 -18 8 2 4 10 7 18 7 8 0 16 -3 18 -7z m-38 -32 c-6 -5 -25 10
-25 20 0 5 6 4 14 -3 8 -7 12 -15 11 -17z m5006 6 c-10 -9 -11 -8 -5 6 3 10 9
15 12 12 3 -3 0 -11 -7 -18z m-4931 9 c0 -3 -4 -8 -10 -11 -5 -3 -10 -1 -10 4
0 6 5 11 10 11 6 0 10 -2 10 -4z m4903 -11 c-3 -9 -8 -14 -10 -11 -3 3 -2 9 2
15 9 16 15 13 8 -4z m75 -10 c-3 -3 -9 2 -12 12 -6 14 -5 15 5 6 7 -7 10 -15
7 -18z m-5004 -1 c3 -8 2 -12 -4 -9 -6 3 -10 10 -10 16 0 14 7 11 14 -7z m-31
-9 c-3 -9 -8 -14 -10 -11 -3 3 -2 9 2 15 9 16 15 13 8 -4z m77 11 c0 -2 -7 -7
-16 -10 -8 -3 -12 -2 -9 4 6 10 25 14 25 6z m64 -8 c-3 -4 -9 -8 -15 -8 -5 0
-9 4 -9 8 0 5 7 9 15 9 8 0 12 -4 9 -9z m4872 3 c-4 -5 -1 -12 4 -14 6 -3 5
-4 -2 -3 -15 3 -23 26 -8 26 6 0 9 -4 6 -9z m-22 -16 c3 -8 1 -15 -4 -15 -6 0
-10 7 -10 15 0 8 2 15 4 15 2 0 6 -7 10 -15z m-4897 -10 c0 -8 -4 -15 -9 -15
-4 0 -8 7 -8 15 0 8 4 15 8 15 5 0 9 -7 9 -15z m4838 6 c-9 -8 -36 -10 -30 -2
2 4 11 8 20 8 8 0 13 -3 10 -6z m125 -1 c0 -5 -2 -10 -4 -10 -3 0 -8 5 -11 10
-3 6 -1 10 4 10 6 0 11 -4 11 -10z m-202 -45 c-3 -3 -9 2 -12 12 -6 14 -5 15
5 6 7 -7 10 -15 7 -18z m-24 7 c3 -5 -1 -9 -9 -9 -8 0 -12 4 -9 9 3 4 7 8 9 8
2 0 6 -4 9 -8z m-4621 -29 c-3 -7 -6 -13 -8 -13 -2 0 -5 6 -8 13 -3 8 1 14 8
14 7 0 11 -6 8 -14z m62 7 c3 -5 1 -10 -4 -10 -6 0 -11 5 -11 10 0 6 2 10 4
10 3 0 8 -4 11 -10z m4503 -2 c-2 -7 3 -12 10 -10 8 1 11 -2 7 -8 -5 -8 -11
-8 -21 1 -7 6 -11 15 -8 20 8 13 14 11 12 -3z m138 0 c5 -8 2 -9 -9 -5 -12 4
-17 1 -17 -10 0 -9 -3 -14 -6 -10 -9 8 3 37 15 37 5 0 13 -5 17 -12z m132 -23
c-3 -3 -9 2 -12 12 -6 14 -5 15 5 6 7 -7 10 -15 7 -18z m-4798 0 c19 -22 8
-25 -12 -3 -10 10 -14 18 -9 18 5 0 14 -7 21 -15z m130 5 c0 -5 -5 -10 -11
-10 -5 0 -7 5 -4 10 3 6 8 10 11 10 2 0 4 -4 4 -10z m-143 -66 c3 3 -2 17 -11
30 -14 22 -14 25 -1 20 8 -4 15 -12 15 -20 0 -16 16 -19 25 -4 3 6 14 9 23 9
16 -1 16 -2 0 -6 -17 -4 -14 -33 4 -33 5 0 6 5 2 11 -4 7 1 7 16 -1 20 -11 22
-10 17 4 -4 11 -3 15 4 11 6 -4 8 -13 5 -21 -3 -7 -1 -16 4 -19 6 -4 10 -1 10
4 0 16 36 13 50 -4 7 -8 16 -13 20 -10 10 6 22 -24 14 -36 -3 -5 -10 -7 -15
-4 -5 4 -14 3 -21 -1 -22 -14 -57 -13 -68 1 -8 10 -18 11 -36 5 -18 -7 -24 -6
-24 5 0 20 -20 29 -33 16 -16 -16 -32 -14 -18 3 9 10 8 16 -4 26 -12 10 -15
10 -15 -1 0 -12 -2 -12 -9 -1 -4 8 -12 14 -17 15 -16 3 -13 30 4 43 14 10 19
7 35 -18 10 -17 21 -28 24 -24z m4583 46 c0 -5 -4 -10 -10 -10 -5 0 -10 5 -10
10 0 6 5 10 10 10 6 0 10 -4 10 -10z m-100 -4 c0 -2 -6 -9 -14 -15 -11 -9 -16
-9 -22 0 -4 7 -3 9 4 5 6 -3 13 -2 17 4 6 10 15 14 15 6z m-51 -20 c9 -11 9
-16 -1 -22 -7 -4 -10 -4 -6 1 4 4 0 14 -10 21 -9 7 -12 14 -6 14 6 0 17 -6 23
-14z m241 -16 c0 -4 -6 -13 -14 -19 -10 -9 -15 -8 -19 3 -3 8 -4 16 -1 18 7 7
34 5 34 -2z m-4441 -46 c-6 -8 -14 -14 -16 -14 -3 0 1 8 8 17 12 14 12 16 -2
11 -9 -4 -16 -1 -16 7 0 11 5 11 19 4 15 -8 17 -13 7 -25z m42 13 c-10 -9 -11
-8 -5 6 3 10 9 15 12 12 3 -3 0 -11 -7 -18z m3989 -2 c14 -19 14 -19 -2 -6
-10 7 -18 18 -18 24 0 6 1 8 3 6 1 -2 9 -13 17 -24z m330 10 c0 -3 -13 -11
-29 -19 -31 -17 -50 -10 -25 8 15 12 54 19 54 11z m-401 -31 c-6 -8 -17 -14
-23 -14 -6 0 -3 5 7 11 9 6 14 15 11 21 -4 7 -2 8 5 4 9 -6 9 -11 0 -22z m186
10 c-9 -9 -13 -19 -10 -22 3 -4 10 0 15 8 7 11 9 10 7 -7 0 -12 -5 -19 -10
-16 -4 3 -17 -3 -28 -13 -10 -9 -22 -14 -26 -11 -3 4 -12 2 -19 -4 -9 -7 -19
-7 -36 2 -20 11 -21 10 -10 -3 10 -12 9 -18 -2 -28 -13 -10 -15 -8 -11 9 2 11
-3 27 -11 35 -19 19 -18 32 1 16 12 -10 18 -10 32 1 11 10 14 10 9 2 -4 -7 -3
-13 2 -13 16 0 22 13 11 27 -16 18 -1 17 17 -2 22 -21 33 -19 28 8 -4 20 -4
20 4 2 9 -19 9 -19 21 3 6 12 16 22 22 22 6 0 3 -7 -6 -16z m-4019 -13 c0 -16
-4 -17 -18 -10 -10 5 -18 12 -18 15 0 3 4 3 9 -1 5 -3 12 -1 16 5 9 14 11 13
11 -9z m4108 -16 c-9 -14 -20 -22 -25 -19 -13 8 -11 21 7 38 23 24 36 9 18
-19z m-4048 10 c-1 -8 -5 -17 -8 -21 -5 -4 -4 16 1 34 3 9 9 -1 7 -13z m3839
5 c3 -5 1 -10 -4 -10 -6 0 -11 5 -11 10 0 6 2 10 4 10 3 0 8 -4 11 -10z
m-3754 -37 c13 -16 12 -17 -3 -4 -10 7 -18 15 -18 17 0 8 8 3 21 -13z m-151
-5 c0 -6 -3 -8 -7 -5 -3 4 -12 2 -20 -5 -11 -8 -12 -7 -7 6 7 18 34 22 34 4z
m91 -8 c6 0 7 6 3 13 -5 9 -4 9 6 0 8 -7 11 -16 7 -19 -10 -10 -37 4 -36 18 0
10 2 10 6 1 2 -7 9 -13 14 -13z m3596 -2 c-3 -8 -6 -5 -6 6 -1 11 2 17 5 13 3
-3 4 -12 1 -19z m113 17 c0 -7 -30 -13 -34 -7 -3 4 4 9 15 9 10 1 19 0 19 -2z
m-3656 -36 c19 3 27 0 22 -8 -4 -5 0 -11 6 -13 8 -3 4 -9 -10 -17 -18 -10 -26
-10 -38 0 -10 8 -11 16 -5 22 5 5 7 17 4 26 -4 12 -3 13 5 3 5 -8 12 -13 16
-13z m83 14 c-4 -3 -2 -12 4 -19 15 -18 -6 -27 -32 -14 -11 7 -18 14 -15 18 4
3 12 0 18 -6 7 -7 17 -12 22 -12 6 0 5 5 -2 12 -15 15 -15 28 0 28 6 0 8 -3 5
-7z m78 -15 c5 4 5 1 1 -5 -11 -20 -23 -15 -29 10 -5 20 -5 20 7 5 7 -10 17
-14 21 -10z m-343 -20 c-7 -7 -12 -8 -12 -2 0 14 12 26 19 19 2 -3 -1 -11 -7
-17z m393 12 c3 -6 -1 -7 -9 -4 -18 7 -21 14 -7 14 6 0 13 -4 16 -10z m3119 2
c3 -5 -1 -9 -9 -9 -8 0 -12 4 -9 9 3 4 7 8 9 8 2 0 6 -4 9 -8z m40 -4 c-3 -4
-9 -8 -15 -8 -5 0 -9 4 -9 8 0 5 7 9 15 9 8 0 12 -4 9 -9z m96 1 c0 -4 -9 -7
-19 -6 -11 0 -18 4 -16 7 6 9 35 8 35 -1z m-3315 -25 c8 -3 15 -1 15 5 0 6 5
11 12 11 9 0 9 -3 0 -12 -19 -19 -14 -29 8 -16 15 10 22 10 32 0 6 -6 16 -12
22 -12 6 0 5 5 -2 12 -15 15 -16 28 -2 28 6 0 9 -6 8 -12 -2 -9 7 -12 26 -11
l30 2 -24 -16 c-25 -18 -63 -26 -54 -11 8 13 -10 9 -36 -9 -14 -9 -22 -13 -18
-8 13 14 -13 37 -27 25 -9 -8 -15 -8 -20 0 -5 8 -10 8 -20 0 -10 -8 -15 -8
-20 0 -9 14 25 41 43 35 6 -3 19 -8 27 -11z m188 1 c-3 -9 -8 -14 -10 -11 -3
3 -2 9 2 15 9 16 15 13 8 -4z m2867 5 c0 -5 -5 -10 -11 -10 -5 0 -7 5 -4 10 3
6 8 10 11 10 2 0 4 -4 4 -10z m-2803 -22 c2 -17 0 -19 -7 -8 -5 8 -6 18 -4 22
8 12 10 10 11 -14z m3158 13 c3 -5 1 -12 -5 -16 -5 -3 -10 1 -10 9 0 18 6 21
15 7z m-3112 -16 c-3 -9 -8 -14 -10 -11 -3 3 -2 9 2 15 9 16 15 13 8 -4z m152
-15 c2 -12 1 -20 -2 -16 -4 4 -8 16 -10 28 -4 28 6 18 12 -12z m2535 20 c-8
-5 -19 -10 -25 -10 -5 0 -3 5 5 10 8 5 20 10 25 10 6 0 3 -5 -5 -10z m-2806
-14 c8 3 16 -2 20 -11 6 -17 26 -12 26 6 0 6 -5 7 -12 3 -7 -5 -8 -3 -4 5 6 9
13 8 26 -6 36 -37 -18 -56 -59 -19 -12 11 -21 14 -26 6 -3 -5 -11 -8 -16 -4
-5 3 -7 10 -3 15 3 5 10 7 15 4 5 -4 9 0 10 7 0 9 2 10 5 1 3 -7 11 -10 18 -7z
m191 -6 c-3 -5 -12 -10 -18 -10 -7 0 -6 4 3 10 19 12 23 12 15 0z m25 3 c0 -5
-10 -19 -21 -33 l-21 -25 18 33 c18 32 24 38 24 25z m2288 -23 c-7 -11 -14
-17 -17 -15 -2 3 1 11 7 18 7 8 8 18 4 22 -4 5 -1 5 5 1 10 -5 10 -11 1 -26z
m108 13 c-2 -9 -9 -19 -17 -21 -11 -3 -11 -1 1 7 8 6 11 11 7 11 -5 0 -5 5 -2
10 9 15 14 12 11 -7z m104 7 c0 -5 -4 -10 -10 -10 -5 0 -10 5 -10 10 0 6 5 10
10 10 6 0 10 -4 10 -10z m-2345 -12 c5 4 5 1 1 -5 -10 -18 -23 -16 -30 3 -5
13 -4 14 7 6 8 -7 18 -8 22 -4z m113 -11 c8 -10 6 -13 -7 -13 -11 0 -17 6 -14
13 3 7 6 13 8 13 1 0 7 -6 13 -13z m207 4 c3 -5 2 -12 -3 -15 -5 -3 -9 1 -9 9
0 17 3 19 12 6z m-184 -34 c-10 -9 -11 -8 -5 6 3 10 9 15 12 12 3 -3 0 -11 -7
-18z m1523 7 c3 -8 2 -12 -4 -9 -6 3 -10 10 -10 16 0 14 7 11 14 -7z m286 11
c0 -7 -30 -13 -34 -7 -3 4 4 9 15 9 10 1 19 0 19 -2z m140 1 c0 -2 -7 -9 -15
-16 -13 -11 -14 -10 -9 4 5 14 24 23 24 12z m-2000 -27 c0 -5 5 -9 11 -9 5 0
7 5 4 10 -3 6 -1 10 4 10 17 0 13 -18 -7 -29 -12 -6 -23 -5 -37 5 -10 8 -13
14 -6 14 7 0 9 4 6 10 -3 6 1 7 9 4 9 -3 16 -10 16 -15z m641 4 c13 -16 12
-17 -3 -4 -17 13 -22 21 -14 21 2 0 10 -8 17 -17z m993 2 c-3 -8 -14 -17 -25
-20 -11 -4 -17 -11 -14 -16 7 -10 -13 -33 -30 -36 -6 -1 -19 -5 -29 -9 -11 -4
-17 -4 -14 2 4 5 0 18 -8 29 -8 11 -14 13 -14 6 0 -7 -6 -11 -14 -8 -7 3 -19
0 -25 -6 -9 -9 -11 -8 -5 6 4 10 13 16 21 13 7 -3 17 2 20 10 5 14 8 12 19 -7
8 -14 13 -18 14 -10 0 12 3 11 13 -2 9 -13 16 -14 27 -6 13 10 13 10 0 6 -11
-3 -16 2 -17 17 0 11 1 15 4 9 3 -7 9 -13 14 -13 6 0 7 5 4 10 -4 6 -3 10 2 9
21 -4 34 2 27 13 -4 6 -3 8 4 4 6 -3 13 -2 17 4 9 15 15 12 9 -5z m177 -3 c-7
-2 -18 1 -23 6 -8 8 -4 9 13 5 13 -4 18 -8 10 -11z m127 -12 c15 1 15 2 -2 15
-11 8 -16 15 -10 15 18 0 33 -16 30 -32 -3 -21 -16 -36 -16 -20 0 7 -5 12 -11
12 -5 0 -7 -6 -3 -12 5 -10 4 -10 -6 -1 -11 10 -17 9 -32 -4 -14 -13 -20 -13
-33 -3 -8 7 -12 17 -9 22 3 5 12 1 19 -9 13 -17 14 -17 11 0 -1 10 -9 23 -17
28 -8 5 -9 9 -3 9 5 0 15 -5 22 -12 9 -9 13 -7 18 6 6 16 8 17 16 2 5 -9 17
-16 26 -16z m-1718 10 c0 -5 -2 -10 -4 -10 -3 0 -8 5 -11 10 -3 6 -1 10 4 10
6 0 11 -4 11 -10z m180 -4 c0 -7 6 -19 14 -25 10 -9 17 -7 27 6 12 15 12 16
-6 9 -15 -5 -17 -4 -8 5 13 13 37 3 28 -12 -6 -9 8 -13 33 -10 6 1 12 -3 12
-9 0 -6 -4 -9 -9 -5 -5 3 -12 1 -16 -5 -4 -6 -12 -7 -24 0 -12 6 -22 5 -29 -2
-7 -7 -13 -9 -13 -5 -3 18 -6 23 -17 45 -8 14 -9 22 -2 22 5 0 10 -6 10 -14z
m140 -1 c0 -1 -8 -5 -18 -7 -11 -3 -19 0 -19 7 0 7 8 10 19 7 10 -2 18 -6 18
-7z m17 -7 c-3 -8 -6 -5 -6 6 -1 11 2 17 5 13 3 -3 4 -12 1 -19z m53 18 c0 -2
-8 -10 -17 -17 -16 -13 -17 -12 -4 4 13 16 21 21 21 13z m107 -11 c0 -8 -4
-12 -9 -9 -5 3 -6 10 -3 15 9 13 12 11 12 -6z m39 -2 c-2 -9 -9 -19 -17 -21
-11 -3 -11 -1 1 7 8 6 11 11 7 11 -5 0 -5 5 -2 10 9 15 14 12 11 -7z m58 1 c3
-8 2 -12 -4 -9 -6 3 -10 10 -10 16 0 14 7 11 14 -7z m277 -7 c-10 -9 -11 -8
-5 6 3 10 9 15 12 12 3 -3 0 -11 -7 -18z m169 1 c0 -7 -5 -6 -13 1 -8 6 -18 7
-22 3 -5 -4 -5 -2 -1 5 8 14 36 6 36 -9z m35 1 c-4 -5 1 -12 10 -15 9 -4 14
-13 11 -20 -3 -8 0 -11 9 -7 11 4 12 10 4 26 -10 21 -9 21 8 -1 14 -18 21 -20
31 -10 17 17 28 2 12 -17 -9 -11 -16 -12 -25 -5 -9 8 -14 7 -17 -1 -5 -16 -38
-21 -35 -6 1 7 -6 11 -15 11 -10 -1 -15 2 -12 7 3 5 1 9 -5 9 -5 0 -12 -4 -16
-10 -3 -5 -12 -7 -21 -3 -8 3 -14 2 -13 -3 3 -20 -2 -26 -14 -16 -10 9 -52 10
-52 1 0 -1 -16 -3 -36 -4 -36 -2 -37 -1 -30 34 1 2 13 -4 27 -14 25 -16 26
-16 19 4 -8 25 2 27 27 4 10 -9 18 -11 18 -5 0 6 -4 14 -10 17 -5 3 -10 11
-10 18 0 6 7 1 17 -12 15 -23 17 -23 30 -6 7 11 13 13 13 6 0 -7 5 -9 10 -6 6
3 10 1 10 -6 0 -9 3 -9 14 0 7 6 22 8 31 4 14 -5 16 -3 9 8 -12 20 -14 40 -3
33 5 -3 7 -10 4 -15z m102 -1 c-3 -8 -6 -5 -6 6 -1 11 2 17 5 13 3 -3 4 -12 1
-19z m143 7 c0 -8 -4 -15 -8 -15 -5 0 -9 7 -9 15 0 8 4 15 9 15 4 0 8 -7 8
-15z m118 -2 c-8 -10 -18 -27 -22 -37 -5 -15 -9 -17 -19 -7 -9 9 -5 17 18 36
36 29 44 32 23 8z m56 5 c-8 -13 11 -9 25 5 11 10 13 10 7 0 -4 -8 -2 -13 6
-13 9 0 9 -3 -2 -10 -11 -7 -3 -10 28 -10 24 0 41 4 38 9 -3 5 1 11 9 14 11 5
12 2 4 -17 -15 -31 -61 -29 -113 6 -29 20 -34 27 -18 25 11 0 18 -5 16 -9z
m-663 -21 c-8 -8 -14 -7 -23 2 -11 10 -9 11 6 5 15 -6 17 -4 11 6 -6 9 -4 11
4 5 9 -5 10 -10 2 -18z m146 8 c0 -8 -4 -12 -9 -9 -5 3 -6 10 -3 15 9 13 12
11 12 -6z m598 -3 c-3 -3 -11 0 -18 7 -9 10 -8 11 6 5 10 -3 15 -9 12 -12z
m-1180 -19 c-2 -16 -4 -30 -4 -32 -1 -2 -9 3 -19 12 -10 10 -22 14 -25 10 -4
-3 -7 -1 -7 6 0 8 7 11 15 7 8 -3 21 1 27 9 17 19 17 19 13 -12z m405 1 c0 -2
-9 0 -20 6 -11 6 -20 13 -20 16 0 2 9 0 20 -6 11 -6 20 -13 20 -16z m-377 -4
c3 -11 1 -18 -4 -14 -5 3 -9 12 -9 20 0 20 7 17 13 -6z m313 -5 c-2 -7 1 -19
7 -26 10 -11 9 -11 -4 -1 -9 6 -19 9 -22 5 -4 -3 -7 0 -7 7 0 10 -4 9 -17 -3
-15 -13 -21 -13 -37 -2 -10 8 -15 18 -11 24 10 17 28 13 21 -5 -5 -13 -2 -15
11 -9 10 4 26 7 36 7 15 -1 16 2 6 14 -10 12 -9 13 5 8 10 -4 15 -12 12 -19z
m-406 11 c0 -2 -3 -12 -6 -20 -5 -13 -9 -14 -20 -5 -20 16 -17 29 6 29 11 0
20 -2 20 -4z"/>
<path d="M1625 1350 c-3 -6 1 -7 9 -4 18 7 21 14 7 14 -6 0 -13 -4 -16 -10z"/>
<path d="M1484 1320 c1 -7 5 -11 10 -10 5 1 12 -3 15 -9 4 -6 11 -3 18 8 13
20 1 24 -24 8 -6 -4 -14 -2 -16 3 -4 7 -5 6 -3 0z"/>
<path d="M1404 1278 c-3 -5 -11 -5 -17 -2 -9 5 -9 4 -1 -5 9 -9 17 -10 31 -2
14 7 23 7 32 -2 10 -9 11 -8 6 5 -7 17 -42 21 -51 6z"/>
<path d="M5997 1133 c-3 -5 9 -21 28 -36 23 -18 35 -23 38 -14 3 7 6 4 6 -6 1
-10 5 -16 10 -13 12 8 20 -16 17 -48 -2 -16 1 -25 8 -23 6 2 10 11 8 21 -3 19
16 20 41 2 15 -12 16 -14 2 -20 -24 -9 -18 -24 18 -43 17 -9 35 -17 39 -18 13
0 20 -14 12 -26 -5 -9 -10 -8 -20 5 -7 10 -15 13 -18 7 -4 -5 -2 -12 4 -16 6
-4 8 -11 5 -16 -3 -5 1 -6 9 -3 22 8 20 -8 -4 -39 -21 -27 -26 -42 -11 -32 5
3 13 0 17 -6 4 -7 3 -9 -4 -5 -6 3 -13 2 -17 -4 -4 -6 4 -9 19 -8 19 2 22 5
15 15 -20 23 1 35 29 17 26 -17 26 -17 12 0 -13 16 -12 20 10 39 14 11 18 18
8 14 -18 -6 -41 15 -44 41 -1 10 -5 26 -9 36 -6 13 -5 17 3 12 6 -3 14 -1 18
5 4 7 3 9 -4 5 -6 -3 -17 2 -24 12 -7 9 -25 26 -39 37 -24 19 -29 26 -29 42 0
3 -9 -2 -19 -11 -19 -17 -39 -7 -27 13 8 12 -16 29 -36 26 -10 -2 -18 3 -18
10 0 8 -5 17 -12 21 -8 5 -9 1 -5 -12 6 -15 3 -13 -11 5 -11 13 -22 20 -25 14z
m151 -81 c-2 -4 14 -23 35 -42 26 -25 34 -39 28 -49 -6 -10 -13 -11 -27 -2
-11 6 -13 11 -6 11 7 0 11 4 7 10 -3 5 -13 6 -23 3 -15 -5 -14 -4 2 9 17 14
17 15 -8 32 -15 9 -24 21 -21 26 7 12 16 13 13 2z m106 -194 c-10 -15 -27 -3
-29 20 -2 21 -1 21 16 6 10 -9 16 -21 13 -26z"/>
<path d="M6189 987 c6 -8 7 -18 3 -22 -4 -5 -1 -5 6 -1 10 6 10 11 1 22 -6 8
-14 14 -16 14 -3 0 0 -6 6 -13z"/>
<path d="M6267 776 c-4 -10 -3 -15 3 -11 6 3 10 1 10 -6 0 -7 3 -10 6 -6 3 3
2 13 -4 22 -8 16 -9 16 -15 1z"/>
<path d="M6186 771 c-3 -5 2 -15 12 -22 15 -12 16 -12 5 2 -7 9 -10 19 -6 22
3 4 4 7 0 7 -3 0 -8 -4 -11 -9z"/>
<path d="M6126 731 c-3 -5 1 -11 9 -15 8 -3 17 -1 20 5 4 5 12 6 18 3 7 -4 9
-3 4 1 -11 13 -45 16 -51 6z"/>
<path d="M6126 664 c-11 -8 -14 -14 -7 -14 7 0 9 -5 5 -12 -6 -10 -5 -10 8 -1
8 7 17 10 21 7 3 -3 4 1 3 10 -3 24 -9 26 -30 10z"/>
<path d="M1169 528 c-8 -27 -5 -36 11 -33 10 2 24 -3 31 -11 6 -8 16 -14 22
-14 6 0 19 -8 30 -17 11 -10 17 -12 13 -5 -4 7 -1 12 9 12 9 0 14 -4 10 -9 -3
-6 3 -8 14 -6 11 2 22 -2 24 -9 5 -14 34 -15 55 -2 6 4 17 4 22 1 22 -13 8 11
-16 28 -25 19 -54 17 -54 -3 0 -7 6 -8 19 -1 14 8 20 7 24 -3 4 -10 0 -12 -14
-9 -12 3 -19 0 -19 -8 0 -8 -9 1 -20 19 -21 34 -30 38 -47 21 -8 -8 -13 -5
-18 11 -6 20 -8 20 -25 5 -16 -15 -19 -14 -38 9 -17 23 -30 32 -33 24z m92
-55 c13 -16 12 -17 -3 -4 -10 7 -18 15 -18 17 0 8 8 3 21 -13z"/>
<path d="M5575 420 c-4 -6 -15 -8 -24 -5 -10 3 -24 -1 -31 -10 -8 -10 -9 -15
-1 -15 6 0 11 5 11 11 0 6 8 8 19 4 10 -3 24 1 31 10 7 8 10 15 7 15 -3 0 -9
-5 -12 -10z"/>
<path d="M5679 433 c-13 -16 -12 -17 4 -4 9 7 17 15 17 17 0 8 -8 3 -21 -13z"/>
<path d="M1711 356 c-9 -10 -9 -16 -1 -21 16 -10 31 7 21 23 -6 10 -10 10 -20
-2z"/>
<path d="M1819 323 c-12 -16 -12 -17 2 -6 11 9 19 9 26 2 8 -8 13 -7 18 2 5 8
4 10 -3 5 -7 -4 -12 -2 -12 3 0 17 -16 13 -31 -6z"/>
<path d="M1905 310 c-3 -6 1 -7 9 -4 18 7 21 14 7 14 -6 0 -13 -4 -16 -10z"/>
<path d="M2050 296 c0 -2 8 -10 18 -17 15 -13 16 -12 3 4 -13 16 -21 21 -21
13z"/>
<path d="M2095 280 c-3 -5 -1 -10 4 -10 6 0 11 5 11 10 0 6 -2 10 -4 10 -3 0
-8 -4 -11 -10z"/>
<path d="M4399 223 c-12 -16 -12 -17 2 -6 9 7 20 9 24 5 5 -4 5 -1 1 6 -9 16
-11 15 -27 -5z"/>
<path d="M3715 191 c-3 -5 -2 -12 3 -15 5 -3 9 1 9 9 0 17 -3 19 -12 6z"/>
<path d="M1855 1460 c-3 -5 -1 -10 4 -10 6 0 11 5 11 10 0 6 -2 10 -4 10 -3 0
-8 -4 -11 -10z"/>
<path d="M1828 1438 c5 -5 16 -8 23 -6 8 3 3 7 -10 11 -17 4 -21 3 -13 -5z"/>
<path d="M1890 1435 c0 -8 4 -15 8 -15 5 0 9 7 9 15 0 8 -4 15 -9 15 -4 0 -8
-7 -8 -15z"/>
<path d="M1756 1427 c3 -10 9 -15 12 -12 3 3 0 11 -7 18 -10 9 -11 8 -5 -6z"/>
<path d="M5353 1425 c0 -8 4 -12 9 -9 5 3 6 10 3 15 -9 13 -12 11 -12 -6z"/>
<path d="M1808 1423 c6 -2 9 -10 6 -15 -4 -7 -2 -8 5 -4 13 9 5 26 -12 25 -9
0 -8 -2 1 -6z"/>
<path d="M1847 1410 c-26 -21 -63 -28 -52 -10 3 6 1 10 -5 10 -10 0 -7 -46 4
-57 2 -3 14 5 25 16 12 12 26 20 32 19 6 -2 15 7 20 20 10 27 8 27 -24 2z"/>
<path d="M5283 1415 c-3 -9 -3 -18 -1 -21 3 -3 8 4 11 16 6 23 -1 27 -10 5z"/>
<path d="M1610 1405 c-7 -9 -10 -18 -6 -22 3 -3 6 -1 6 6 0 7 4 10 8 7 5 -3 9
1 9 9 0 19 -2 19 -17 0z"/>
<path d="M5244 1408 c-4 -6 2 -17 12 -25 10 -8 18 -19 16 -24 -1 -6 3 -7 10
-3 25 16 51 15 44 -1 -4 -11 -2 -14 7 -8 6 4 18 8 24 8 7 0 13 3 13 8 0 4 0
12 0 18 0 5 -5 7 -11 3 -8 -4 -7 -9 2 -16 11 -7 9 -8 -4 -4 -10 3 -21 6 -24 6
-3 0 1 8 8 18 11 14 11 15 -1 5 -21 -19 -29 -16 -24 10 5 22 4 22 -5 1 -13
-30 -30 -38 -37 -20 -3 9 -10 13 -15 10 -5 -3 -9 -1 -9 5 0 5 6 12 13 14 9 4
9 6 0 6 -6 1 -15 -4 -19 -11z"/>
<path d="M5427 1398 c-15 -12 -14 -13 10 -14 16 -1 22 1 15 3 -6 3 -10 9 -6
14 7 12 1 11 -19 -3z"/>
<path d="M5475 1400 c3 -5 8 -10 11 -10 2 0 4 5 4 10 0 6 -5 10 -11 10 -5 0
-7 -4 -4 -10z"/>
<path d="M1519 1398 c-5 -18 -6 -38 -1 -34 7 8 12 36 6 36 -2 0 -4 -1 -5 -2z"/>
<path d="M1353 1365 c0 -8 4 -12 9 -9 5 3 6 10 3 15 -9 13 -12 11 -12 -6z"/>
<path d="M5475 1350 c2 -27 7 -35 21 -35 11 0 19 6 19 13 0 7 7 17 15 22 8 5
11 10 6 10 -5 0 -18 -7 -28 -17 -19 -17 -26 -5 -7 14 8 8 7 13 -2 18 -7 5 -10
4 -5 -3 3 -6 2 -13 -3 -16 -5 -4 -12 2 -14 11 -3 10 -4 2 -2 -17z"/>
<path d="M5555 1370 c3 -5 8 -10 11 -10 2 0 4 5 4 10 0 6 -5 10 -11 10 -5 0
-7 -4 -4 -10z"/>
<path d="M1379 1353 c-13 -17 -13 -17 6 -3 11 8 22 16 24 17 2 2 0 3 -6 3 -6
0 -17 -8 -24 -17z"/>
<path d="M1426 1358 c3 -4 9 -8 15 -8 5 0 9 4 9 8 0 5 -7 9 -15 9 -8 0 -12 -4
-9 -9z"/>
<path d="M5430 1360 c18 -12 30 -13 30 -2 0 4 -10 9 -22 9 -18 2 -20 0 -8 -7z"/>
<path d="M5585 1360 c-3 -6 1 -7 9 -4 18 7 21 14 7 14 -6 0 -13 -4 -16 -10z"/>
<path d="M5637 1355 c-6 -15 10 -32 20 -21 4 3 1 6 -5 6 -6 0 -9 7 -6 15 4 8
4 15 1 15 -3 0 -7 -7 -10 -15z"/>
<path d="M1323 1320 c6 -8 12 -16 13 -18 1 -1 4 5 6 15 4 13 0 19 -13 19 -14
0 -16 -3 -6 -16z"/>
<path d="M1296 1317 c3 -10 9 -15 12 -12 3 3 0 11 -7 18 -10 9 -11 8 -5 -6z"/>
<path d="M5670 1321 c0 -5 5 -13 10 -16 6 -3 10 -2 10 4 0 5 -4 13 -10 16 -5
3 -10 2 -10 -4z"/>
<path d="M1196 1301 c-17 -6 -17 -8 -4 -14 10 -3 19 0 22 9 3 8 4 14 3 13 -1
0 -11 -4 -21 -8z"/>
<path d="M5841 1293 c-1 -17 16 -25 25 -12 4 7 3 9 -4 5 -5 -3 -13 0 -15 6 -4
9 -6 10 -6 1z"/>
<path d="M1136 1275 c-3 -8 0 -17 6 -21 6 -4 8 -3 4 4 -3 5 -1 12 6 14 8 3 9
6 1 11 -6 4 -13 0 -17 -8z"/>
<path d="M5780 1285 c0 -8 29 -12 39 -5 9 5 4 8 -13 8 -14 0 -26 -2 -26 -3z"/>
<path d="M5915 1280 c-3 -5 -1 -10 4 -10 6 0 11 5 11 10 0 6 -2 10 -4 10 -3 0
-8 -4 -11 -10z"/>
<path d="M5774 1265 c11 -8 16 -15 12 -15 -5 0 -3 -7 4 -15 7 -8 9 -15 5 -15
-4 0 -2 -7 5 -15 7 -8 17 -15 22 -15 6 0 5 7 -2 15 -10 12 -10 18 1 32 10 11
10 14 2 9 -7 -4 -13 -3 -13 2 0 5 -12 14 -27 21 -26 10 -27 10 -9 -4z"/>
<path d="M1302 1266 c4 -5 2 -16 -5 -25 -11 -14 -10 -15 7 -1 11 8 20 13 22
10 1 -3 6 0 11 5 4 6 4 7 -1 3 -5 -4 -16 -2 -25 4 -9 7 -13 8 -9 4z"/>
<path d="M5972 1259 c2 -7 -3 -13 -11 -14 -18 0 -26 -21 -12 -30 7 -4 8 0 4
11 -4 11 -2 15 4 11 6 -4 16 0 22 7 9 10 9 16 1 21 -6 4 -9 1 -8 -6z"/>
<path d="M1005 1217 c-15 -12 -16 -15 -4 -22 8 -5 11 -5 7 0 -4 4 0 14 10 21
23 18 11 18 -13 1z"/>
<path d="M6016 1221 c9 -9 34 -9 34 -1 0 5 -9 8 -20 7 -10 -1 -17 -3 -14 -6z"/>
<path d="M850 1200 c0 -5 5 -10 11 -10 5 0 7 5 4 10 -3 6 -8 10 -11 10 -2 0
-4 -4 -4 -10z"/>
<path d="M905 1200 c-3 -6 1 -7 9 -4 18 7 21 14 7 14 -6 0 -13 -4 -16 -10z"/>
<path d="M953 1187 c-1 -11 -1 -18 0 -16 2 2 8 11 15 20 9 12 9 16 -1 16 -7 0
-14 -9 -14 -20z"/>
<path d="M1150 1202 c0 -4 9 -8 20 -9 11 -1 20 2 20 5 0 4 -9 8 -20 9 -11 1
-20 -2 -20 -5z"/>
<path d="M6070 1200 c0 -5 5 -10 11 -10 5 0 7 5 4 10 -3 6 -8 10 -11 10 -2 0
-4 -4 -4 -10z"/>
<path d="M6116 1179 c2 -4 0 -9 -5 -11 -5 -1 -2 -10 7 -18 14 -13 15 -12 10 2
-4 8 -2 20 3 25 6 6 4 10 -5 10 -8 0 -13 -4 -10 -8z"/>
<path d="M790 1176 c0 -2 8 -10 18 -17 15 -13 16 -12 3 4 -13 16 -21 21 -21
13z"/>
<path d="M895 1169 c-4 -6 -5 -12 -2 -15 2 -3 7 2 10 11 7 17 1 20 -8 4z"/>
<path d="M5901 1159 c12 -23 29 -34 29 -19 0 6 6 8 13 4 6 -4 4 2 -6 13 -22
26 -50 27 -36 2z"/>
<path d="M833 1155 c0 -8 4 -12 9 -9 4 3 8 9 8 15 0 5 -4 9 -8 9 -5 0 -9 -7
-9 -15z"/>
<path d="M6154 1152 c3 -5 0 -13 -6 -15 -9 -4 -10 -6 -1 -6 17 -1 25 16 12 25
-7 4 -9 3 -5 -4z"/>
<path d="M6191 1133 c7 -10 15 -20 16 -22 2 -2 3 3 3 11 0 9 -7 19 -16 22 -15
6 -15 4 -3 -11z"/>
<path d="M6315 1140 c-3 -5 -1 -10 4 -10 6 0 11 5 11 10 0 6 -2 10 -4 10 -3 0
-8 -4 -11 -10z"/>
<path d="M815 1130 c6 -10 3 -12 -13 -8 -12 4 -20 2 -16 -3 7 -12 31 -12 39 0
3 5 0 13 -6 17 -8 5 -9 3 -4 -6z"/>
<path d="M733 1115 c0 -8 4 -12 9 -9 5 3 6 10 3 15 -9 13 -12 11 -12 -6z"/>
<path d="M851 1114 c0 -11 3 -14 6 -6 3 7 2 16 -1 19 -3 4 -6 -2 -5 -13z"/>
<path d="M1030 1120 c0 -5 5 -10 10 -10 6 0 10 5 10 10 0 6 -4 10 -10 10 -5 0
-10 -4 -10 -10z"/>
<path d="M6176 1117 c3 -10 9 -15 12 -12 3 3 0 11 -7 18 -10 9 -11 8 -5 -6z"/>
<path d="M770 1106 c0 -3 14 -12 30 -21 17 -9 30 -20 30 -26 0 -8 -4 -8 -14 0
-16 14 -42 -11 -30 -30 4 -7 2 -10 -7 -7 -8 3 -13 13 -11 23 3 13 -3 11 -22
-10 -30 -32 -35 -46 -8 -22 10 10 22 14 25 10 11 -10 8 -33 -4 -33 -5 0 -7 5
-3 12 4 7 3 8 -5 4 -6 -4 -9 -12 -6 -17 8 -12 -2 -11 -25 1 -16 8 -18 8 -14
-5 3 -8 10 -12 15 -9 5 3 9 -2 9 -10 0 -19 -4 -20 -29 -5 -13 9 -23 9 -37 0
-17 -10 -16 -11 7 -5 35 7 44 -9 23 -41 -13 -20 -19 -23 -30 -14 -10 8 -14 8
-14 0 0 -6 5 -11 11 -11 5 0 7 -5 3 -12 -4 -7 -3 -8 4 -4 7 4 12 3 12 -3 0 -5
-8 -14 -17 -20 -10 -5 -14 -13 -9 -18 5 -4 11 -2 13 5 4 10 8 10 19 1 18 -15
18 -30 0 -23 -15 6 -42 -33 -31 -44 3 -3 8 4 12 16 3 12 9 22 14 22 12 0 11
-24 -1 -36 -11 -11 22 -54 40 -54 6 0 10 -5 10 -11 0 -5 -4 -7 -10 -4 -5 3
-10 1 -10 -5 0 -7 7 -9 16 -6 9 3 18 6 21 6 3 0 0 7 -7 15 -14 16 -10 18 14 9
9 -3 14 -10 11 -15 -3 -4 4 -13 15 -19 11 -6 27 -24 36 -41 10 -20 20 -29 30
-25 12 4 14 1 9 -14 -4 -13 -2 -20 6 -20 7 0 9 3 6 7 -4 3 1 12 11 19 24 19
37 17 21 -3 -11 -13 -11 -17 -1 -20 6 -3 9 -10 6 -15 -5 -7 -2 -8 6 -3 9 6 12
4 8 -7 -4 -8 -2 -21 2 -29 7 -10 9 -9 9 6 -1 52 17 80 46 69 16 -7 15 -10 -11
-31 -24 -19 -27 -25 -14 -33 13 -9 13 -11 0 -20 -10 -7 -11 -10 -2 -10 7 0 17
11 24 25 6 13 15 22 19 19 5 -3 1 -17 -9 -32 -9 -14 -12 -23 -6 -19 7 4 15 0
18 -9 3 -9 11 -12 18 -8 8 5 9 2 5 -9 -3 -9 -2 -19 2 -21 5 -3 8 3 7 14 0 11
-5 20 -10 19 -5 0 -13 5 -17 13 -10 15 -12 34 -3 26 3 -4 17 0 32 8 17 9 30
10 36 4 13 -13 26 -13 26 1 0 5 -4 8 -9 4 -5 -3 -12 -1 -16 4 -3 5 -14 8 -25
6 -11 -2 -22 0 -24 4 -6 10 35 8 51 -2 7 -4 16 0 21 9 6 11 11 13 16 5 4 -6 2
-11 -5 -11 -22 0 0 -13 28 -16 l27 -3 -27 26 c-21 21 -29 24 -40 14 -12 -9
-18 -9 -30 3 -13 14 -16 14 -21 -1 -6 -14 -10 -13 -31 7 -14 13 -35 24 -47 25
-15 1 -22 8 -22 18 1 9 -1 15 -5 12 -9 -5 -86 81 -86 96 0 16 -35 21 -35 6 0
-7 -5 -4 -11 5 -6 11 -16 15 -27 11 -15 -6 -15 -4 2 15 11 12 16 22 11 22 -4
0 -2 7 5 15 6 8 15 14 18 13 4 0 13 0 20 1 15 1 6 21 -9 21 -6 0 -8 -4 -5 -8
3 -5 -1 -9 -9 -9 -11 0 -12 4 -4 13 8 10 6 12 -10 11 -12 -1 -21 -4 -21 -7 0
-3 -9 -6 -19 -7 -21 -2 -22 20 -2 40 10 9 11 8 6 -5 -8 -20 10 -25 21 -6 4 6
3 9 -2 6 -5 -4 -10 5 -11 19 0 16 2 21 7 13 5 -8 9 -9 14 -1 6 10 0 13 -20 10
-8 -1 -24 22 -24 35 0 4 11 1 24 -8 16 -10 27 -12 31 -6 4 6 10 8 15 5 5 -3 7
4 5 15 -2 11 0 18 5 15 6 -3 7 1 4 9 -5 14 32 43 43 33 2 -3 -5 -8 -16 -12
-23 -7 -29 -25 -8 -25 7 0 8 -3 2 -8 -14 -10 -18 -42 -5 -42 5 0 10 5 10 11 0
8 4 8 14 0 9 -8 16 -8 20 -2 4 5 -2 12 -12 15 -26 9 -26 46 0 43 11 -1 23 4
26 12 2 8 0 11 -5 8 -6 -4 -22 7 -36 23 -24 27 -87 67 -87 56z m66 -59 c8 3
14 0 14 -7 0 -6 -4 -9 -8 -6 -5 3 -16 -8 -26 -25 -9 -16 -14 -29 -10 -29 3 0
1 -7 -6 -15 -9 -11 -16 -11 -29 -3 -16 10 -16 12 6 36 12 13 20 28 17 33 -9
15 7 32 18 21 6 -6 17 -8 24 -5z m-96 -152 c-7 -8 -18 -15 -24 -15 -6 0 -5 4
3 9 8 5 16 17 17 25 1 9 -2 14 -7 10 -5 -3 -7 -10 -4 -15 7 -10 -8 -12 -18 -2
-4 3 1 14 11 23 16 17 18 16 26 -1 6 -12 5 -24 -4 -34z m-35 -20 c-1 -14 2
-28 8 -32 6 -3 7 -1 3 5 -3 6 -2 14 4 17 6 4 9 1 8 -7 -2 -8 7 -13 22 -14 41
-2 43 -3 30 -19 -7 -8 -9 -15 -5 -15 5 0 1 -8 -8 -17 -13 -15 -13 -22 -3 -42
9 -15 16 -20 20 -12 4 6 2 11 -4 11 -6 0 -8 5 -4 11 5 8 10 6 16 -5 7 -13 13
-14 30 -5 16 8 19 8 13 -1 -4 -7 -2 -16 5 -20 8 -5 7 -9 -5 -13 -10 -4 -14 -3
-9 4 3 6 -3 5 -15 -2 -12 -8 -16 -16 -9 -20 6 -4 14 -12 18 -19 5 -8 9 -7 13
5 5 11 3 14 -6 9 -9 -5 -8 -3 1 7 11 11 14 12 21 1 5 -8 11 -13 15 -13 17 3
26 0 25 -6 -3 -20 2 -34 10 -29 5 3 16 -5 25 -19 10 -15 12 -26 6 -30 -6 -4
-7 -12 -3 -18 4 -7 -1 -6 -11 2 -11 9 -13 18 -7 24 5 5 7 16 4 24 -5 12 -8 11
-23 -2 -11 -10 -20 -13 -24 -6 -4 6 -13 8 -20 5 -8 -3 -17 3 -21 15 -3 11 -18
30 -32 41 -14 11 -21 20 -14 20 6 0 11 4 11 8 0 9 -6 11 -51 15 -30 2 -61 25
-53 38 8 13 24 11 22 -3 -2 -7 7 -13 20 -14 30 -2 28 10 -4 25 -27 12 -28 32
-3 39 10 2 11 1 2 -5 -9 -6 -7 -12 6 -20 15 -9 18 -9 17 0 -6 28 -19 47 -27
41 -16 -9 -36 14 -33 38 3 29 2 28 13 28 5 0 8 -11 6 -25z m293 -288 c-1 -2 3
-11 10 -20 10 -12 10 -17 1 -23 -7 -4 -9 -3 -6 3 4 6 0 16 -8 23 -12 10 -16 9
-21 -4 -3 -9 -10 -13 -15 -10 -5 3 1 14 13 24 20 16 37 21 26 7z"/>
<path d="M803 1033 c4 -3 1 -13 -6 -22 -11 -14 -10 -14 5 -2 16 12 16 31 1 31
-4 0 -3 -3 0 -7z"/>
<path d="M776 981 c-4 -5 -2 -12 3 -15 5 -4 12 -2 15 3 4 5 2 12 -3 15 -5 4
-12 2 -15 -3z"/>
<path d="M744 829 c-2 -4 0 -10 6 -14 6 -4 7 -12 4 -18 -4 -7 -3 -8 2 -4 5 5
9 12 9 15 0 4 3 12 7 18 4 6 0 11 -8 11 -8 0 -17 -4 -20 -8z"/>
<path d="M796 728 c3 -5 10 -6 15 -3 13 9 11 12 -6 12 -8 0 -12 -4 -9 -9z"/>
<path d="M836 674 c-9 -24 0 -30 21 -13 15 12 16 12 10 -3 -3 -10 -2 -20 3
-23 16 -10 18 10 4 35 -8 15 -13 19 -14 10 0 -12 -2 -12 -9 -2 -6 11 -10 10
-15 -4z"/>
<path d="M6234 1097 c3 -10 1 -27 -4 -38 -15 -27 -4 -42 20 -29 15 8 21 6 29
-7 6 -10 11 -13 11 -7 0 6 -7 17 -15 24 -13 10 -12 15 8 32 l22 19 -27 -17
c-15 -9 -26 -20 -23 -24 3 -4 -2 -10 -10 -14 -18 -6 -19 -1 -5 25 8 14 8 24 0
37 -11 16 -11 16 -6 -1z"/>
<path d="M973 1085 c0 -8 4 -12 9 -9 5 3 6 10 3 15 -9 13 -12 11 -12 -6z"/>
<path d="M750 1082 c0 -4 10 -9 22 -9 18 -2 20 0 8 7 -18 12 -30 13 -30 2z"/>
<path d="M675 1061 c-3 -5 -2 -12 3 -15 5 -3 9 1 9 9 0 17 -3 19 -12 6z"/>
<path d="M711 1054 c7 -8 6 -14 -3 -17 -10 -4 -10 -6 0 -6 7 -1 15 6 18 14 4
8 11 12 18 8 6 -3 8 -2 3 2 -4 5 -16 9 -27 10 -15 1 -17 -2 -9 -11z"/>
<path d="M6297 1039 c7 -7 15 -10 18 -7 3 3 -2 9 -12 12 -14 6 -15 5 -6 -5z"/>
<path d="M670 1020 c0 -5 5 -10 10 -10 6 0 10 5 10 10 0 6 -4 10 -10 10 -5 0
-10 -4 -10 -10z"/>
<path d="M6255 1010 c3 -5 8 -10 11 -10 2 0 4 5 4 10 0 6 -5 10 -11 10 -5 0
-7 -4 -4 -10z"/>
<path d="M6376 1007 c3 -10 9 -15 12 -12 3 3 0 11 -7 18 -10 9 -11 8 -5 -6z"/>
<path d="M591 1007 c2 -1 13 -9 24 -17 19 -14 19 -14 6 3 -7 9 -18 17 -24 17
-6 0 -8 -1 -6 -3z"/>
<path d="M6290 1000 c-8 -5 -10 -10 -5 -10 6 0 17 5 25 10 8 5 11 10 5 10 -5
0 -17 -5 -25 -10z"/>
<path d="M6360 991 c0 -6 4 -13 10 -16 6 -3 7 1 4 9 -7 18 -14 21 -14 7z"/>
<path d="M575 980 c-3 -5 -1 -10 4 -10 6 0 11 5 11 10 0 6 -2 10 -4 10 -3 0
-8 -4 -11 -10z"/>
<path d="M606 958 c3 -4 9 -8 15 -8 5 0 9 4 9 8 0 5 -7 9 -15 9 -8 0 -12 -4
-9 -9z"/>
<path d="M6380 960 c-9 -6 -10 -10 -3 -10 6 0 15 5 18 10 8 12 4 12 -15 0z"/>
<path d="M6480 960 c-9 -6 -10 -10 -3 -10 6 0 15 5 18 10 8 12 4 12 -15 0z"/>
<path d="M530 940 c0 -5 5 -10 11 -10 5 0 7 5 4 10 -3 6 -8 10 -11 10 -2 0 -4
-4 -4 -10z"/>
<path d="M675 941 c-3 -6 -9 -9 -13 -7 -4 2 -16 -2 -27 -10 -10 -8 -14 -14 -8
-14 7 0 15 5 18 10 5 8 12 7 23 -2 10 -8 13 -8 9 -1 -4 6 -1 13 5 16 7 2 10 7
7 11 -4 4 -10 2 -14 -3z"/>
<path d="M799 950 c0 -3 -2 -12 -4 -20 -13 -55 -13 -56 8 -55 12 0 27 4 34 8
15 9 13 45 -3 51 -8 3 -11 -3 -8 -19 2 -13 0 -26 -6 -30 -5 -3 -8 0 -7 7 2 7
2 10 0 6 -3 -5 -9 -8 -15 -8 -6 0 -4 8 5 18 11 12 13 22 7 32 -5 8 -10 13 -11
10z"/>
<path d="M6360 934 c0 -6 7 -19 16 -30 14 -18 14 -18 3 6 -14 31 -19 36 -19
24z"/>
<path d="M6433 923 c4 -3 2 -11 -3 -18 -7 -8 -6 -12 3 -12 7 0 14 9 14 19 1
10 -3 18 -9 18 -6 0 -8 -3 -5 -7z"/>
<path d="M6345 899 c-4 -6 -5 -12 -2 -15 2 -3 7 2 10 11 7 17 1 20 -8 4z"/>
<path d="M569 883 c-13 -16 -12 -17 4 -4 9 7 17 15 17 17 0 8 -8 3 -21 -13z"/>
<path d="M6360 876 c0 -9 -4 -14 -10 -11 -5 3 -10 1 -10 -4 0 -6 5 -11 10 -11
13 0 25 28 16 37 -3 4 -6 -1 -6 -11z"/>
<path d="M6397 883 c-10 -9 -9 -23 1 -23 5 0 9 7 9 15 0 17 -1 18 -10 8z"/>
<path d="M630 870 c0 -5 5 -10 10 -10 6 0 10 5 10 10 0 6 -4 10 -10 10 -5 0
-10 -4 -10 -10z"/>
<path d="M510 860 c0 -5 5 -10 11 -10 5 0 7 5 4 10 -3 6 -8 10 -11 10 -2 0 -4
-4 -4 -10z"/>
<path d="M600 840 c-8 -5 -10 -10 -5 -10 6 0 17 5 25 10 8 5 11 10 5 10 -5 0
-17 -5 -25 -10z"/>
<path d="M6371 847 c2 -1 15 -11 29 -22 l25 -20 -19 23 c-11 12 -24 22 -29 22
-6 0 -8 -1 -6 -3z"/>
<path d="M6453 835 c0 -8 4 -12 9 -9 5 3 6 10 3 15 -9 13 -12 11 -12 -6z"/>
<path d="M570 821 c0 -10 29 -36 34 -30 1 2 -6 12 -16 22 -10 9 -18 13 -18 8z"/>
<path d="M615 821 c-4 -7 0 -8 11 -4 12 4 15 3 10 -5 -4 -7 -2 -12 4 -12 14 0
8 22 -7 27 -6 2 -14 -1 -18 -6z"/>
<path d="M6486 818 c3 -5 10 -6 15 -3 13 9 11 12 -6 12 -8 0 -12 -4 -9 -9z"/>
<path d="M830 799 c0 -5 5 -7 10 -4 6 3 10 8 10 11 0 2 -4 4 -10 4 -5 0 -10
-5 -10 -11z"/>
<path d="M6434 788 l-19 -23 23 19 c12 11 22 21 22 23 0 8 -8 2 -26 -19z"/>
<path d="M535 780 c-3 -5 -1 -10 4 -10 6 0 11 5 11 10 0 6 -2 10 -4 10 -3 0
-8 -4 -11 -10z"/>
<path d="M619 788 c-8 -27 -5 -36 9 -30 14 5 15 3 5 -9 -11 -13 -9 -15 7 -14
11 1 23 5 27 10 5 4 4 6 -2 3 -12 -6 -46 27 -37 36 3 3 2 6 -1 6 -4 0 -7 -1
-8 -2z"/>
<path d="M6345 779 c-4 -6 -5 -12 -2 -15 2 -3 7 2 10 11 7 17 1 20 -8 4z"/>
<path d="M6360 754 c0 -8 -5 -12 -10 -9 -6 3 -13 -1 -16 -9 -3 -9 -10 -13 -15
-10 -5 3 -9 0 -9 -5 0 -16 20 -13 26 3 3 8 14 13 24 11 13 -3 16 1 13 16 -6
23 -13 25 -13 3z"/>
<path d="M6436 753 c-6 -14 -5 -15 5 -6 7 7 10 15 7 18 -3 3 -9 -2 -12 -12z"/>
<path d="M6510 760 c0 -5 5 -10 11 -10 5 0 7 5 4 10 -3 6 -8 10 -11 10 -2 0
-4 -4 -4 -10z"/>
<path d="M6400 740 c-9 -6 -10 -10 -3 -10 6 0 15 5 18 10 8 12 4 12 -15 0z"/>
<path d="M666 722 c-3 -4 4 -9 15 -9 23 -2 25 3 4 10 -8 4 -16 3 -19 -1z"/>
<path d="M6353 695 c0 -8 4 -12 9 -9 5 3 6 10 3 15 -9 13 -12 11 -12 -6z"/>
<path d="M670 696 c0 -2 7 -9 15 -16 9 -7 15 -8 15 -2 0 5 -7 12 -15 16 -8 3
-15 4 -15 2z"/>
<path d="M6330 686 c0 -8 4 -17 9 -20 5 -4 7 3 4 14 -6 23 -13 26 -13 6z"/>
<path d="M740 675 c0 -9 -6 -12 -15 -9 -8 4 -15 4 -15 1 0 -16 31 -13 40 3 7
14 7 20 0 20 -5 0 -10 -7 -10 -15z"/>
<path d="M763 660 c-9 -13 -9 -22 1 -35 10 -14 15 -15 21 -5 5 8 4 11 -2 7 -6
-4 -13 0 -17 8 -3 8 2 18 11 23 8 5 11 12 6 15 -5 3 -14 -3 -20 -13z"/>
<path d="M693 645 c0 -7 6 -11 14 -8 7 3 13 6 13 8 0 2 -6 5 -13 8 -8 3 -14
-1 -14 -8z"/>
<path d="M792 636 c7 -8 15 -12 17 -11 5 6 -10 25 -20 25 -5 0 -4 -6 3 -14z"/>
<path d="M6000 610 c-8 -5 -10 -10 -5 -10 6 0 17 5 25 10 8 5 11 10 5 10 -5 0
-17 -5 -25 -10z"/>
<path d="M810 600 c0 -5 5 -10 10 -10 6 0 10 5 10 10 0 6 -4 10 -10 10 -5 0
-10 -4 -10 -10z"/>
<path d="M950 600 c0 -5 5 -10 10 -10 6 0 10 5 10 10 0 6 -4 10 -10 10 -5 0
-10 -4 -10 -10z"/>
<path d="M6167 599 c7 -7 15 -10 18 -7 3 3 -2 9 -12 12 -14 6 -15 5 -6 -5z"/>
<path d="M6304 602 c4 -3 14 -7 22 -8 9 -1 13 0 10 4 -4 3 -14 7 -22 8 -9 1
-13 0 -10 -4z"/>
<path d="M736 582 c-3 -5 1 -9 9 -9 8 0 12 4 9 9 -3 4 -7 8 -9 8 -2 0 -6 -4
-9 -8z"/>
<path d="M6196 582 c-2 -4 -1 -14 4 -22 7 -11 9 -9 7 8 -1 24 -3 26 -11 14z"/>
<path d="M6228 583 c7 -3 16 -2 19 1 4 3 -2 6 -13 5 -11 0 -14 -3 -6 -6z"/>
<path d="M776 567 c3 -10 9 -15 12 -12 3 3 0 11 -7 18 -10 9 -11 8 -5 -6z"/>
<path d="M835 570 c3 -5 8 -10 11 -10 2 0 4 5 4 10 0 6 -5 10 -11 10 -5 0 -7
-4 -4 -10z"/>
<path d="M870 570 c0 -5 5 -10 10 -10 6 0 10 5 10 10 0 6 -4 10 -10 10 -5 0
-10 -4 -10 -10z"/>
<path d="M6070 553 c5 -2 8 -9 4 -14 -3 -5 0 -9 6 -9 15 0 7 23 -8 26 -7 1 -8
0 -2 -3z"/>
<path d="M6146 545 c-18 -14 -18 -14 1 -12 11 0 20 7 20 14 0 7 -1 13 -1 13
-1 0 -9 -7 -20 -15z"/>
<path d="M893 529 c-2 -23 3 -25 10 -4 4 8 3 16 -1 19 -4 3 -9 -4 -9 -15z"/>
<path d="M816 513 c-6 -14 -5 -15 5 -6 7 7 10 15 7 18 -3 3 -9 -2 -12 -12z"/>
<path d="M5961 513 c12 -15 12 -16 -3 -10 -10 4 -18 2 -18 -4 0 -6 9 -9 20 -6
11 3 20 0 20 -6 0 -6 3 -8 6 -5 7 8 -18 48 -30 48 -4 0 -2 -8 5 -17z"/>
<path d="M6090 499 c0 -5 5 -7 10 -4 6 3 10 8 10 11 0 2 -4 4 -10 4 -5 0 -10
-5 -10 -11z"/>
<path d="M1115 421 c-3 -5 -2 -12 3 -15 5 -3 9 1 9 9 0 17 -3 19 -12 6z"/>
<path d="M5890 419 c0 -5 5 -7 10 -4 6 3 10 8 10 11 0 2 -4 4 -10 4 -5 0 -10
-5 -10 -11z"/>
<path d="M5811 404 c0 -11 3 -14 6 -6 3 7 2 16 -1 19 -3 4 -6 -2 -5 -13z"/>
<path d="M1190 396 c7 -7 13 -7 20 0 6 6 3 10 -10 10 -13 0 -16 -4 -10 -10z"/>
<path d="M1270 391 c0 -9 30 -24 36 -18 2 1 -6 8 -16 15 -11 7 -20 8 -20 3z"/>
<path d="M5773 385 c0 -8 4 -12 9 -9 5 3 6 10 3 15 -9 13 -12 11 -12 -6z"/>
<path d="M5640 386 c0 -2 7 -7 16 -10 8 -3 12 -2 9 4 -6 10 -25 14 -25 6z"/>
<path d="M5306 371 c-7 -10 3 -41 13 -41 3 0 6 11 6 25 0 25 -9 33 -19 16z"/>
<path d="M5536 353 c-6 -14 -5 -15 5 -6 7 7 10 15 7 18 -3 3 -9 -2 -12 -12z"/>
<path d="M5647 359 c7 -7 15 -10 18 -7 3 3 -2 9 -12 12 -14 6 -15 5 -6 -5z"/>
<path d="M5496 342 c-2 -4 0 -14 6 -22 8 -12 9 -12 5 2 -3 9 -1 19 6 22 9 3 9
5 0 5 -6 1 -14 -3 -17 -7z"/>
<path d="M5095 329 c-4 -6 -5 -12 -2 -15 2 -3 7 2 10 11 7 17 1 20 -8 4z"/>
<path d="M5228 322 c5 -9 8 -23 6 -30 -1 -7 0 -8 3 -2 2 5 10 7 16 3 8 -5 8
-2 0 9 -7 8 -10 17 -7 20 2 3 -2 8 -11 12 -12 4 -14 2 -7 -12z"/>
<path d="M1550 320 c0 -5 5 -10 11 -10 5 0 7 5 4 10 -3 6 -8 10 -11 10 -2 0
-4 -4 -4 -10z"/>
<path d="M4990 295 c-10 -13 -15 -13 -21 -3 -6 9 -10 8 -15 -5 -6 -16 -7 -16
-18 -2 -12 17 -46 11 -46 -7 0 -5 4 -7 9 -3 10 6 34 -29 26 -37 -3 -3 2 -5 10
-5 11 0 12 4 5 11 -16 16 -12 30 5 16 8 -6 20 -10 27 -7 8 3 5 6 -6 6 -11 1
-16 4 -12 8 10 10 36 13 36 3 0 -4 7 -11 16 -14 13 -5 14 -3 7 6 -6 7 -9 21
-8 31 4 21 1 21 -15 2z"/>
<path d="M5291 284 c0 -11 3 -14 6 -6 3 7 2 16 -1 19 -3 4 -6 -2 -5 -13z"/>
<path d="M5260 280 c-9 -6 -10 -10 -3 -10 6 0 15 5 18 10 8 12 4 12 -15 0z"/>
<path d="M1915 269 c-4 -6 -5 -12 -2 -15 2 -3 7 2 10 11 7 17 1 20 -8 4z"/>
<path d="M1710 266 c0 -2 7 -7 16 -10 8 -3 12 -2 9 4 -6 10 -25 14 -25 6z"/>
<path d="M5116 262 c-3 -5 1 -9 9 -9 8 0 12 4 9 9 -3 4 -7 8 -9 8 -2 0 -6 -4
-9 -8z"/>
<path d="M1990 249 c0 -5 -6 -7 -12 -3 -7 4 -10 3 -5 -1 13 -15 46 -13 40 2
-6 16 -23 17 -23 2z"/>
<path d="M4775 250 c4 -6 1 -18 -6 -26 -10 -12 -9 -13 5 -8 18 7 22 44 5 44
-5 0 -7 -5 -4 -10z"/>
<path d="M4596 241 c-4 -6 -1 -11 6 -11 8 0 9 -3 3 -8 -13 -9 -17 -32 -6 -32
12 0 20 35 11 50 -5 9 -9 9 -14 1z"/>
<path d="M2750 222 c0 -5 7 -9 15 -9 8 0 12 4 9 9 -3 4 -9 8 -15 8 -5 0 -9 -4
-9 -8z"/>
<path d="M4830 220 c0 -5 5 -10 11 -10 5 0 7 5 4 10 -3 6 -8 10 -11 10 -2 0
-4 -4 -4 -10z"/>
<path d="M2130 216 c0 -2 8 -10 18 -17 15 -13 16 -12 3 4 -13 16 -21 21 -21
13z"/>
<path d="M2290 210 c-9 -6 -10 -10 -3 -10 6 0 15 5 18 10 8 12 4 12 -15 0z"/>
<path d="M2680 215 c0 -9 32 -35 43 -35 7 0 6 4 -3 10 -12 8 -12 10 -1 10 8 0
12 2 9 5 -6 7 -48 15 -48 10z"/>
<path d="M2853 204 c-5 -13 -7 -13 -14 -2 -5 7 -9 9 -9 3 0 -5 10 -21 21 -35
15 -18 18 -19 11 -5 -12 26 -5 45 15 38 11 -4 14 -2 9 5 -10 17 -26 15 -33 -4z"/>
<path d="M2460 200 c-12 -7 -10 -9 7 -7 12 0 19 5 17 9 -6 10 -6 10 -24 -2z"/>
<path d="M2612 197 c-25 -11 -29 -24 -7 -24 8 0 12 4 10 8 -7 11 21 19 32 8 6
-6 10 -5 10 4 0 16 -15 17 -45 4z"/>
<path d="M4650 202 c0 -5 7 -9 15 -9 8 0 12 4 9 9 -3 4 -9 8 -15 8 -5 0 -9 -4
-9 -8z"/>
<path d="M4690 199 c0 -5 5 -7 10 -4 6 3 10 8 10 11 0 2 -4 4 -10 4 -5 0 -10
-5 -10 -11z"/>
<path d="M3178 170 c-28 -27 -29 -29 -4 -11 15 11 33 18 39 14 5 -3 -1 -12
-14 -19 -13 -7 -19 -13 -14 -14 6 0 21 7 33 16 20 14 23 14 28 -1 5 -13 8 -14
15 -3 5 7 20 14 34 15 15 1 23 -2 19 -8 -3 -6 3 -5 13 2 22 13 26 36 7 36 -7
0 -10 -7 -8 -16 4 -14 3 -13 -8 1 -11 15 -14 15 -42 -5 -26 -18 -29 -19 -23
-3 4 10 3 15 -4 11 -5 -4 -16 -2 -24 5 -10 9 -21 4 -47 -20z"/>
<path d="M2870 179 c0 -5 4 -8 9 -4 6 3 14 -3 20 -12 6 -10 11 -13 11 -7 0 12
-20 34 -32 34 -4 0 -8 -5 -8 -11z"/>
<path d="M3544 177 c1 -7 7 -21 13 -31 10 -17 11 -17 11 7 0 14 -6 28 -13 31
-7 2 -12 -1 -11 -7z"/>
<path d="M4410 180 c0 -5 5 -10 11 -10 5 0 7 5 4 10 -3 6 -8 10 -11 10 -2 0
-4 -4 -4 -10z"/>
<path d="M4470 178 c0 -4 4 -8 9 -8 6 0 12 4 15 8 3 5 -1 9 -9 9 -8 0 -15 -4
-15 -9z"/>
<path d="M2553 167 c0 -8 6 -14 14 -14 9 0 10 4 2 14 -6 7 -12 13 -14 13 -1 0
-2 -6 -2 -13z"/>
<path d="M2675 170 c3 -5 8 -10 11 -10 2 0 4 5 4 10 0 6 -5 10 -11 10 -5 0 -7
-4 -4 -10z"/>
<path d="M2820 172 c0 -6 5 -14 10 -17 6 -4 7 -11 4 -17 -4 -7 -2 -8 5 -4 9 6
9 12 -1 24 -7 10 -14 19 -15 21 -2 2 -3 -1 -3 -7z"/>
<path d="M2726 162 c-3 -5 1 -9 9 -9 8 0 12 4 9 9 -3 4 -7 8 -9 8 -2 0 -6 -4
-9 -8z"/>
<path d="M4296 153 c-6 -14 -5 -15 5 -6 7 7 10 15 7 18 -3 3 -9 -2 -12 -12z"/>
<path d="M2793 145 c0 -8 4 -12 9 -9 5 3 6 10 3 15 -9 13 -12 11 -12 -6z"/>
<path d="M2975 150 c-3 -6 1 -7 9 -4 18 7 21 14 7 14 -6 0 -13 -4 -16 -10z"/>
<path d="M3910 151 c0 -6 4 -12 8 -15 5 -3 9 1 9 9 0 8 -4 15 -9 15 -4 0 -8
-4 -8 -9z"/>
<path d="M3270 146 c0 -2 9 -6 20 -9 11 -3 18 -1 14 4 -5 9 -34 13 -34 5z"/>
<path d="M3330 140 c0 -5 5 -10 11 -10 5 0 7 5 4 10 -3 6 -8 10 -11 10 -2 0
-4 -4 -4 -10z"/>
<path d="M3450 140 c0 -5 5 -10 11 -10 5 0 7 5 4 10 -3 6 -8 10 -11 10 -2 0
-4 -4 -4 -10z"/>
<path d="M3530 140 c0 -5 5 -10 11 -10 5 0 7 5 4 10 -3 6 -8 10 -11 10 -2 0
-4 -4 -4 -10z"/>
<path d="M3695 141 c-3 -5 -2 -12 3 -15 5 -3 9 1 9 9 0 17 -3 19 -12 6z"/>
</g>
</svg>
